<?xml version="1.0" encoding="UTF-8" standalone="no"?>
<!-- Created with Inkscape (http://www.inkscape.org/) -->

<svg
   xmlns:dc="http://purl.org/dc/elements/1.1/"
   xmlns:cc="http://creativecommons.org/ns#"
   xmlns:rdf="http://www.w3.org/1999/02/22-rdf-syntax-ns#"
   xmlns:svg="http://www.w3.org/2000/svg"
   xmlns="http://www.w3.org/2000/svg"
   xmlns:sodipodi="http://sodipodi.sourceforge.net/DTD/sodipodi-0.dtd"
   xmlns:inkscape="http://www.inkscape.org/namespaces/inkscape"
   width="300"
   height="240"
   viewBox="0 0 300 240"
   id="svg18491"
   version="1.1"
   inkscape:version="0.91 r13725"
   sodipodi:docname="ovarno.svg">
  <defs
     id="defs18493" />
  <sodipodi:namedview
     id="base"
     pagecolor="#ffffff"
     bordercolor="#666666"
     borderopacity="1.0"
     inkscape:pageopacity="0.0"
     inkscape:pageshadow="2"
     inkscape:zoom="1.4"
     inkscape:cx="145.61031"
     inkscape:cy="128.00072"
     inkscape:document-units="px"
     inkscape:current-layer="layer1"
     showgrid="false"
     units="px"
     inkscape:window-width="1050"
     inkscape:window-height="1634"
     inkscape:window-x="0"
     inkscape:window-y="0"
     inkscape:window-maximized="1" />
  <metadata
     id="metadata18496">
    <rdf:RDF>
      <cc:Work
         rdf:about="">
        <dc:format>image/svg+xml</dc:format>
        <dc:type
           rdf:resource="http://purl.org/dc/dcmitype/StillImage" />
        <dc:title></dc:title>
      </cc:Work>
    </rdf:RDF>
  </metadata>
  <g
     inkscape:label="Layer 1"
     inkscape:groupmode="layer"
     id="layer1"
     transform="translate(0,-812.36216)">
    <g
       transform="translate(-1164.5269,1856.5976)"
       id="g18322"
       inkscape:export-xdpi="300"
       inkscape:export-ydpi="300">
      <g
         inkscape:export-ydpi="72"
         inkscape:export-xdpi="72"
         id="g10396"
         transform="matrix(1.0334971,-0.86305963,0.86305963,1.0334971,84.049204,316.24654)">
        <path
           sodipodi:nodetypes="czzzzzzzzzcc"
           inkscape:connector-curvature="0"
           id="path10398"
           d="m 1198.7205,-127.51517 c -0.3407,-0.42508 -1.0289,-1.02899 -1.0289,-1.28623 0,-0.25725 0.096,-2.05797 0.1286,-2.25091 0.032,-0.19294 0.031,-1.69921 0.3859,-2.31522 0.3549,-0.61601 1.0103,-0.91671 1.4791,-1.22192 0.4689,-0.30521 0.8103,-0.72036 1.2862,-0.64312 0.4761,0.0773 0.7706,0.50061 1.029,1.02899 0.2585,0.52839 0.2841,1.46063 0.2573,2.05797 -0.027,0.59735 -0.2573,1.22192 -0.3216,1.47917 -0.064,0.25725 -0.4374,1.33076 -0.836,1.80073 -0.3987,0.46996 -1.0066,0.69804 -1.4149,0.96467 -0.5005,0.25009 -0.3892,0.80319 -0.9647,0.38587 z"
           style="fill:#086788;fill-opacity:1;fill-rule:evenodd;stroke:#000000;stroke-width:0.50932205px;stroke-linecap:butt;stroke-linejoin:miter;stroke-opacity:1" />
        <path
           sodipodi:nodetypes="zzzzzzzzzzzzzz"
           inkscape:connector-curvature="0"
           id="path10400"
           d="m 1168.5398,-133.11626 c -0.5502,-0.63498 -0.7276,-2.91041 -0.5457,-3.63801 0.1819,-0.7276 0.5126,-1.79151 0.9095,-2.18281 0.397,-0.3913 0.5052,-0.31173 0.9095,-0.3638 0.4044,-0.0521 0.994,-0.12961 1.4552,0.1819 0.4612,0.3115 0.7511,1.31546 0.9095,1.63711 0.1585,0.32164 0.079,0.14858 0.1107,0.25564 0.031,0.10707 0.01,0.14767 0.064,0.38587 0.057,0.2382 0.3801,0.71751 0.3215,1.02899 -0.059,0.31148 -0.3466,0.36542 -0.5144,0.64312 -0.1679,0.27769 -0.2561,0.70458 -0.4502,1.02898 -0.1941,0.3244 -0.3903,0.65342 -0.7075,0.90036 -0.3171,0.24694 -0.7203,0.4868 -1.1576,0.5145 -0.4373,0.0277 -0.7546,0.24314 -1.3048,-0.39185 z"
           style="fill:#06aed5;fill-opacity:1;fill-rule:evenodd;stroke:#000000;stroke-width:0.50932205px;stroke-linecap:butt;stroke-linejoin:miter;stroke-opacity:1" />
        <path
           sodipodi:nodetypes="zzzzzzzzzzzzz"
           inkscape:connector-curvature="0"
           id="path10402"
           d="m 1174.2821,-132.59579 c -0.2152,-0.34312 -0.096,-1.06966 -0.064,-1.47917 0.032,-0.4095 0.2221,-0.49656 0.193,-0.96467 -0.029,-0.46811 -0.5788,-1.41486 -0.5788,-1.73642 0,-0.32155 0.5546,-1.1089 0.836,-1.47916 0.2814,-0.37027 0.475,-0.6488 0.7717,-0.77174 0.2968,-0.12293 0.4104,-0.25132 0.8361,0 0.4257,0.25133 0.9646,1.54348 1.029,1.86504 0.064,0.32156 0.064,1.60778 0.064,1.86503 0,0.25725 -0.1929,1.54348 -0.3216,1.80073 -0.1286,0.25725 -0.5788,0.96467 -0.836,1.0933 -0.2573,0.12862 -0.7508,0.30251 -1.0933,0.25724 -0.3425,-0.0453 -0.6209,-0.10706 -0.8361,-0.45018 z"
           style="fill:#06aed5;fill-opacity:1;fill-rule:evenodd;stroke:#000000;stroke-width:0.50932205px;stroke-linecap:butt;stroke-linejoin:miter;stroke-opacity:1" />
        <path
           sodipodi:nodetypes="zzzzzzzzzzz"
           inkscape:connector-curvature="0"
           id="path10404"
           d="m 1178.4624,-132.0813 c -0.3561,-0.43352 0.2359,-0.9816 0.2572,-1.60779 0.021,-0.62618 -0.1286,-1.6721 -0.1929,-2.12228 -0.064,-0.45018 0.064,-1.17004 0.3216,-1.6721 0.2576,-0.50206 0.762,-1.05178 1.1576,-1.22192 0.3955,-0.17014 0.7717,-0.25725 0.9003,0 0.1286,0.25724 0.6499,1.69447 0.7718,2.37953 0.1218,0.68506 0.2572,1.35054 0.064,1.6721 -0.1929,0.32156 -0.9647,1.35054 -1.029,1.60779 -0.064,0.25725 -0.1004,0.78355 -0.5145,1.02898 -0.4141,0.24544 -1.3804,0.36921 -1.7364,-0.0643 z"
           style="fill:#06aed5;fill-opacity:1;fill-rule:evenodd;stroke:#000000;stroke-width:0.50932205px;stroke-linecap:butt;stroke-linejoin:miter;stroke-opacity:1" />
        <path
           sodipodi:nodetypes="zzzzzzzzzzzz"
           inkscape:connector-curvature="0"
           id="path10406"
           d="m 1183.0928,-130.28057 c -0.5471,-0.30118 -0.885,-0.685 -1.029,-1.41486 -0.144,-0.72985 0.4999,-1.93816 0.6431,-2.63677 0.1433,-0.69861 0.075,-0.95549 0.2573,-1.54348 0.1824,-0.58799 0.464,-1.6141 0.9003,-1.92935 0.4364,-0.31525 0.6666,-0.1605 1.0933,-0.12862 0.4268,0.0319 1.222,-0.0643 1.4149,0.38586 0.193,0.45019 0,1.86504 -0.064,2.31522 -0.064,0.45018 -0.3216,1.6721 -0.3858,1.99366 -0.064,0.32156 -0.386,1.86504 -0.4502,2.12229 -0.064,0.25725 0.042,0.69457 -0.3859,0.96467 -0.428,0.27011 -1.4466,0.17256 -1.9937,-0.12862 z"
           style="fill:#06aed5;fill-opacity:1;fill-rule:evenodd;stroke:#000000;stroke-width:0.50932205px;stroke-linecap:butt;stroke-linejoin:miter;stroke-opacity:1" />
        <path
           sodipodi:nodetypes="zzzzzzzzzzzzzz"
           inkscape:connector-curvature="0"
           id="path10408"
           d="m 1187.9805,-129.70177 c -0.2098,-0.16826 -0.836,-0.70742 -0.836,-1.02898 0,-0.32155 0.5788,-2.95834 1.029,-3.21558 0.4501,-0.25725 0.4615,-1.08164 0.6431,-1.60779 0.1814,-0.52615 0.1929,-1.35054 0.4502,-1.54348 0.2572,-0.19294 1.4208,-0.50788 1.9936,-0.45019 0.5728,0.0577 0.9848,0.004 1.2862,0.57881 0.3015,0.57501 -0.064,1.99366 -0.4501,2.44384 -0.3859,0.45018 -1.222,1.22192 -1.222,1.80073 0,0.5788 0.1954,1.9665 -0.064,2.50815 -0.2597,0.54166 -0.4734,0.5746 -0.836,0.70743 -0.3627,0.13283 -0.9325,0.018 -1.222,0 -0.2895,-0.018 -0.3859,-0.0254 -0.5145,-0.0643 -0.1285,-0.0389 -0.047,0.0396 -0.2572,-0.12863 z"
           style="fill:#06aed5;fill-opacity:1;fill-rule:evenodd;stroke:#000000;stroke-width:0.50932205px;stroke-linecap:butt;stroke-linejoin:miter;stroke-opacity:1" />
        <path
           sodipodi:nodetypes="zzzzzzzzzzz"
           inkscape:connector-curvature="0"
           id="path10410"
           d="m 1192.418,-129.38021 c -0.4279,-0.33892 -0.5145,-1.80072 -0.5145,-2.18659 0,-0.38587 0.7717,-2.63678 1.029,-2.82971 0.2573,-0.19294 1.5435,-1.35055 1.865,-1.47917 0.3216,-0.12863 1.0806,-0.87082 1.6078,-0.90037 0.5273,-0.0295 1.1577,0.12863 1.2219,0.5145 0.064,0.38587 -0.2572,2.57246 -0.3858,3.02264 -0.1286,0.45019 -0.6432,1.60779 -0.9004,1.86504 -0.2572,0.25725 -1.029,1.15761 -1.2862,1.28624 -0.2573,0.12862 -1.1535,0.6119 -1.6078,0.70742 -0.4543,0.0955 -0.6011,0.33893 -1.029,0 z"
           style="fill:#06aed5;fill-opacity:1;fill-rule:evenodd;stroke:#000000;stroke-width:0.50932205px;stroke-linecap:butt;stroke-linejoin:miter;stroke-opacity:1" />
        <path
           sodipodi:nodetypes="cszzzzzzcc"
           inkscape:connector-curvature="0"
           id="path10412"
           d="m 1197.6272,-121.40557 c -0.5144,-0.48852 -0.8411,-0.92526 -0.9003,-1.54348 -0.068,-0.71199 0.3882,-2.04934 0.7717,-2.70108 0.3835,-0.65175 0.9647,-1.02899 1.2219,-1.22192 0.2573,-0.19294 0.9956,-0.90576 1.3506,-1.0933 0.355,-0.18754 0.2932,-0.38782 0.6431,-0.19294 0.3499,0.19489 0.3216,1.41485 0.4502,1.6721 0.1286,0.25725 0.1882,1.85563 0.064,2.57247 -0.1239,0.71685 -0.5145,1.28623 -0.6431,1.6721 -0.3755,1.72093 -2.468,1.32642 -2.9584,0.83605 z"
           style="fill:#086788;fill-opacity:1;fill-rule:evenodd;stroke:#000000;stroke-width:0.50932205px;stroke-linecap:butt;stroke-linejoin:miter;stroke-opacity:1" />
        <path
           sodipodi:nodetypes="zzzzzzzzzzzz"
           inkscape:connector-curvature="0"
           id="path10414"
           d="m 1200.264,-135.68275 c -0.3417,-0.38707 -0.3618,-0.66437 -0.2572,-1.15761 0.1045,-0.49324 0.718,-0.96475 1.0933,-1.47916 0.3753,-0.51442 0.684,-1.2183 1.1576,-1.60779 0.4735,-0.38949 0.9567,-0.55876 1.5435,-0.70743 0.5867,-0.14867 1.5207,-0.32439 1.9293,-0.12863 0.4087,0.19577 0.4304,0.11376 0.4502,0.64312 0.02,0.52936 -0.8725,1.52547 -1.2219,2.05797 -0.3494,0.53251 -0.5788,0.90036 -0.8361,1.15761 -0.2572,0.25725 -0.9646,1.28623 -1.2862,1.47917 -0.3216,0.19293 -0.3101,0.358 -0.7717,0.38587 -0.4617,0.0279 -1.4591,-0.25604 -1.8008,-0.64312 z"
           style="fill:#086788;fill-opacity:1;fill-rule:evenodd;stroke:#000000;stroke-width:0.50932205px;stroke-linecap:butt;stroke-linejoin:miter;stroke-opacity:1" />
        <path
           sodipodi:nodetypes="zzzzzzzzzzzzzzzzzzzzzz"
           inkscape:connector-curvature="0"
           id="path10416"
           d="m 1202.1291,-128.41553 c -0.3349,-0.5722 0.1929,-1.47917 0.1929,-1.86504 0,-0.38587 0.3941,-2.28153 0.7074,-3.21558 0.3133,-0.93405 0.6068,-1.64122 1.0933,-2.37953 0.4865,-0.73831 0.7849,-1.31681 1.8007,-1.99366 1.0159,-0.67685 3.1233,-1.27434 4.3732,-1.54348 1.2499,-0.26915 2.1155,-0.42572 3.0227,-0.25725 0.9071,0.16847 1.6206,0.72043 2.2509,1.0933 0.6303,0.37287 0.9121,0.57678 1.5435,1.0933 0.6313,0.51651 1.6743,1.37918 2.1866,2.05797 0.5123,0.67879 0.7547,1.17957 0.9646,1.86504 0.21,0.68547 0.3243,1.40878 0.2573,2.18659 -0.067,0.77781 -0.3284,1.72671 -0.7074,2.37953 -0.3791,0.65282 -0.9754,0.97444 -1.4149,1.47917 -0.4395,0.50473 -0.5775,1.11691 -1.2219,1.54348 -0.6444,0.42657 -1.7691,0.67185 -2.5725,0.70743 -0.8034,0.0356 -1.3382,-0.20715 -2.1223,-0.38587 -0.784,-0.17873 -2.1223,-0.45018 -2.5724,-0.70743 -0.4502,-0.25725 -1.3506,-0.51449 -1.8008,-0.64312 -0.4501,-0.12862 -2.0903,-0.28814 -2.7654,-0.38587 -0.6751,-0.0977 -0.6431,-0.0643 -1.2862,-0.19293 -0.6431,-0.12863 -1.5945,-0.26386 -1.9293,-0.83605 z"
           style="fill:#dd1c1a;fill-opacity:1;fill-rule:evenodd;stroke:#000000;stroke-width:0.50932205px;stroke-linecap:butt;stroke-linejoin:miter;stroke-opacity:1" />
        <path
           sodipodi:nodetypes="szzzzzzzzzzzzzzzzzzzs"
           inkscape:connector-curvature="0"
           id="path10418"
           d="m 1200.7142,-120.89108 c -0.1173,-0.53516 0.034,-1.56621 0.193,-2.05797 0.1591,-0.49176 0.6191,-1.64797 1.1576,-2.2509 0.5384,-0.60293 1.1829,-1.04917 1.9293,-1.28624 0.7465,-0.23706 1.3522,-0.20849 2.3795,-0.0643 1.0274,0.14418 2.5683,0.97566 3.6658,1.15761 1.0974,0.18196 1.9354,-0.18268 2.8297,0.0643 0.8943,0.24699 1.5424,0.84797 2.3796,1.35054 0.837,0.50257 1.6687,0.87195 2.6367,1.6721 0.968,0.80014 2.3557,2.05423 3.0226,3.21558 0.6669,1.16136 0.9273,2.42186 1.029,3.47284 0.1018,1.05097 0.3195,1.89118 -0.2572,2.70108 -0.5766,0.80991 -1.8175,1.73351 -2.5945,2.19184 -0.7771,0.45833 -1.1428,0.44519 -2.5778,0.69505 -1.4348,0.24986 -2.6365,-0.004 -3.5371,0 -0.9006,0.004 -1.9785,-0.25317 -3.0596,-0.63598 -1.0811,-0.38306 -1.8683,-1.23296 -2.5082,-1.73641 -0.6399,-0.50346 -1.6721,-1.02899 -2.058,-1.54349 -0.3858,-0.51449 -2.1223,-2.05796 -2.2509,-2.44383 -0.1286,-0.38588 -1.3499,-1.54448 -1.7364,-2.31522 -0.3864,-0.77076 -0.5006,-1.53633 -0.6431,-2.18661 z"
           style="fill:#dd1c1a;fill-opacity:1;fill-rule:evenodd;stroke:#000000;stroke-width:0.50932205px;stroke-linecap:butt;stroke-linejoin:miter;stroke-opacity:1" />
        <path
           sodipodi:nodetypes="zzzzzzzzzzzzzzzzzzzz"
           inkscape:connector-curvature="0"
           id="path10420"
           d="m 1220.3936,-121.34126 c -0.1608,-0.0321 -1.4218,-1.63445 -1.6721,-2.44384 -0.2504,-0.80939 -0.2755,-1.36856 0,-2.12228 0.2755,-0.75372 0.8321,-1.30193 1.7363,-2.05797 0.9043,-0.75604 2.7,-1.95781 3.7944,-2.1866 1.0945,-0.22878 1.3311,0.0524 2.3153,0.25725 0.9842,0.20485 2.6934,0.48623 3.5371,1.0933 0.8438,0.60706 0.998,1.24467 1.4792,2.05797 0.4811,0.8133 1.0397,1.85505 1.3505,2.82971 0.3109,0.97467 0.3292,2.06882 0.5145,2.95833 0.1854,0.88951 0.5865,1.46186 0.5788,2.37954 -0.01,0.91768 -0.3029,1.9064 -0.7717,2.95834 -0.4689,1.05193 -1.2056,2.63271 -2.1223,3.21558 -0.9167,0.58286 -1.7728,0.4343 -2.6368,0.38586 -0.8639,-0.0484 -1.7549,-0.26626 -2.4438,-0.64311 -0.689,-0.37686 -1.3506,-1.02898 -1.6078,-1.47917 -0.2572,-0.45018 -0.4502,-1.80072 -0.6431,-2.18659 -0.193,-0.38587 -1.222,-1.99366 -1.4149,-2.25091 -0.1929,-0.25725 -0.9491,-1.40736 -1.2862,-1.86504 -0.3372,-0.45768 -0.5467,-0.86821 -0.7074,-0.90037 z"
           style="fill:#f18a89;fill-opacity:1;fill-rule:evenodd;stroke:#000000;stroke-width:0.50932205px;stroke-linecap:butt;stroke-linejoin:miter;stroke-opacity:1" />
        <path
           sodipodi:nodetypes="czzzzzzzzzzzzzzzzzzzzzzzzzzzcc"
           inkscape:connector-curvature="0"
           id="path10422"
           d="m 1221.2296,-130.92369 c 0,-0.16077 0.1286,-1.99366 0.1286,-2.31522 0,-0.32155 -0.5144,-2.12227 -0.5788,-2.44384 -0.064,-0.32156 -0.2465,-1.51885 -0.7074,-2.12228 -0.4609,-0.60343 -1.4791,-1.09329 -1.9293,-1.28623 -0.4502,-0.19294 -1.4149,-0.38587 -1.9937,-0.64312 -0.5788,-0.25725 -1.3665,-0.81118 -1.6721,-1.41485 -0.3057,-0.60367 -0.4374,-1.26206 -0.1286,-1.86504 0.3087,-0.60298 0.9194,-0.73136 1.865,-1.15761 0.9457,-0.42625 2.5082,-0.76067 3.8587,-1.15761 1.3505,-0.39694 3.3101,-1.04222 4.2446,-1.22192 0.9344,-0.17971 0.8425,-0.43277 1.2862,-0.12862 0.4436,0.30415 0.2929,1.31708 0.5145,1.86503 0.2216,0.54796 0.2845,1.21574 0.7718,1.41486 0.4871,0.19912 0.827,-0.18602 1.4791,-0.45018 0.6521,-0.26416 1.7558,-0.71454 2.3795,-1.22192 0.6238,-0.50739 0.7068,-1.28471 1.3505,-1.6721 0.6438,-0.38739 1.4002,-0.55411 2.3153,-0.45019 0.915,0.10392 2.7011,0.96468 2.894,1.28624 0.193,0.32156 1.5125,1.20795 1.9937,2.05797 0.4811,0.85002 0.836,2.57246 0.7717,2.89402 -0.064,0.32156 -1.0401,3.29491 -1.6721,4.50181 -0.632,1.20691 -1.6721,2.25091 -1.9294,2.7654 -0.2572,0.5145 -1.2313,3.23801 -1.9293,4.05164 -0.6979,0.81362 -0.9767,0.944 -1.6078,1.09329 -0.631,0.14929 -1.7364,1e-5 -1.9293,-0.25724 -0.1929,-0.25725 -1.0848,-2.13748 -2.058,-2.63678 -0.9732,-0.4993 -2.8297,-0.45018 -3.2156,-0.12862 -0.3858,0.32156 -2.3152,0.32155 -2.6367,0.51449 -1.1859,0.42139 -1.7881,0.54132 -1.8651,0.12862 z"
           style="fill:#f18a89;fill-opacity:1;fill-rule:evenodd;stroke:#000000;stroke-width:0.50932205px;stroke-linecap:butt;stroke-linejoin:miter;stroke-opacity:1" />
        <path
           sodipodi:nodetypes="zzzzzzzzzzzzzzzzz"
           inkscape:connector-curvature="0"
           id="path10424"
           d="m 1206.3736,-140.89199 c 0.2627,0.376 1.1008,0.3161 1.7364,0.38587 0.6357,0.0698 1.3394,0.29032 2.058,0 0.7187,-0.29032 1.0703,-1.0198 1.865,-1.80073 0.7948,-0.78092 2.073,-2.28447 2.8941,-2.89401 0.821,-0.60955 0.8196,-0.63583 1.8007,-0.96468 0.9811,-0.32885 2.9157,-0.39983 4.116,-0.64312 1.2002,-0.24328 2.1309,-0.58278 3.0869,-0.77174 0.956,-0.18895 2.2598,0.131 2.6368,-0.38586 0.377,-0.51687 0.4758,-0.64609 -0.193,-1.15762 -0.6686,-0.51152 -3.3442,0.12863 -3.8586,0.38588 -0.5146,0.25724 -5.3379,1.28622 -5.6595,1.47916 -0.3216,0.19294 -2.5725,0.83605 -3.4728,1.0933 -0.9004,0.25725 -3.2799,0.64312 -3.6014,0.83605 -0.3216,0.19294 -1.781,1.65859 -2.3153,2.2509 -0.5342,0.59232 -0.8003,0.83361 -0.9646,1.22193 -0.1644,0.38832 -0.3913,0.58867 -0.1287,0.96467 z"
           style="fill:#f0c808;fill-opacity:1;fill-rule:evenodd;stroke:#000000;stroke-width:0.50932205px;stroke-linecap:butt;stroke-linejoin:miter;stroke-opacity:1" />
        <path
           sodipodi:nodetypes="czzzzzzzzzzzzzzzzzzzcc"
           inkscape:connector-curvature="0"
           id="path10426"
           d="m 1201.2287,-114.84577 c 0.5671,1.25466 0.6331,2.47408 1.865,3.98732 1.232,1.51323 4.211,3.25163 5.8524,4.37318 1.6413,1.12155 2.1108,1.42492 3.923,2.44385 1.8122,1.01892 5.137,2.66218 7.01,3.53714 1.8729,0.87495 3.5698,2.65142 4.1802,1.80072 0.6104,-0.850701 -0.7183,-0.66217 -1.1576,-1.286232 -0.4393,-0.624058 -1.029,-1.929338 -1.3505,-2.508148 -0.3216,-0.57881 -1.3023,-2.58855 -1.222,-3.53714 0.081,-0.9486 1.3828,-3.55322 1.6078,-4.24457 0.2251,-0.69135 0.8361,-2.2509 0.9004,-2.57246 0.064,-0.32156 0.829,-0.79928 0.2573,-1.09331 -0.5719,-0.29402 -1.6078,1.80073 -1.8008,2.05798 -0.1929,0.25725 -2.2509,2.31522 -2.6368,2.50815 -0.3858,0.19294 -2.1223,0 -2.7654,0.12862 -0.643,0.12863 -1.9936,0.45019 -3.2799,0.19294 -1.2862,-0.25725 -3.5371,-1.0933 -4.0516,-1.28623 -0.5145,-0.19294 -2.7654,-2.12229 -3.0226,-2.37954 -0.2573,-0.25724 -1.5435,-2.31521 -1.8651,-2.63677 -0.3215,-0.32156 -1.6721,-2.37953 -1.9936,-2.63678 -0.3216,-0.25724 -1.2791,-1.29344 -1.8008,-1.15761 -0.7518,0.60336 0.5251,2.39333 1.3506,4.30889 z"
           style="fill:#f0c808;fill-opacity:1;fill-rule:evenodd;stroke:#000000;stroke-width:0.50932205px;stroke-linecap:butt;stroke-linejoin:miter;stroke-opacity:1" />
        <path
           sodipodi:nodetypes="zzzzzzzzzzzzzzz"
           inkscape:connector-curvature="0"
           id="path10428"
           d="m 1225.7957,-98.574936 c -0.9685,-0.754164 -1.6929,-2.328764 -2.2509,-3.215584 -0.5579,-0.88681 -0.947,-1.29627 -1.1576,-2.05797 -0.2105,-0.7617 -0.096,-1.58454 -0.064,-2.37953 0.032,-0.79499 0.1189,-1.57386 0.2572,-2.37953 0.1385,-0.80567 -0.015,-1.33618 0.1608,-2.00974 0.176,-0.67355 0.2165,-2.23757 0.7396,-2.42776 0.5231,-0.19019 0.1286,1.41485 0.1286,1.6721 0,0.25725 0.4934,1.70401 0.7718,2.57247 0.2784,0.86845 0.6431,2.25091 0.9003,2.63677 0.2573,0.38587 2.2509,3.27989 2.3796,3.53714 0.1286,0.25725 1.3796,1.6688 1.7364,2.44384 0.3567,0.775047 0.6819,1.532816 0.5145,2.057973 -0.1674,0.525157 -0.1409,0.639225 -0.9004,0.77174 -0.7595,0.132516 -2.2471,-0.467756 -3.2156,-1.221919 z"
           style="fill:#f0c808;fill-opacity:1;fill-rule:evenodd;stroke:#000000;stroke-width:0.50932205px;stroke-linecap:butt;stroke-linejoin:miter;stroke-opacity:1" />
        <path
           sodipodi:nodetypes="zzzzzzzzzzzzzzzzzzzzzz"
           inkscape:connector-curvature="0"
           id="path10430"
           d="m 1232.034,-97.095768 c -0.5965,-0.447582 -0.9647,-1.286232 -1.2219,-1.800729 -0.2573,-0.514497 -0.8361,-2.122283 -1.029,-2.379523 -0.193,-0.25725 -0.9982,-1.43462 -1.4149,-2.12229 -0.4167,-0.68766 -0.8361,-1.60778 -1.0933,-1.99366 -0.2572,-0.38587 -0.858,-1.44666 -1.3506,-2.25091 -0.4925,-0.80425 -1.4181,-1.9113 -1.6077,-2.57246 -0.1896,-0.66115 -0.421,-0.79588 -0.4663,-1.14153 -0.045,-0.34566 -0.2329,-0.69464 0.209,-0.91644 0.442,-0.2218 0.6582,1.14428 1.2219,1.54348 0.5638,0.3992 1.2683,0.56558 2.058,0.70743 0.7896,0.14185 2.3795,0.0643 2.6368,0.0643 0.2572,0 0.9647,1.47917 1.2219,1.80073 0.2573,0.32156 0.9862,2.24119 1.5435,3.15127 0.5573,0.91008 1.1672,1.50071 1.7364,2.31522 0.5692,0.81451 1.0718,1.84464 1.6721,2.57246 0.6003,0.72783 1.4267,1.223716 1.865,1.800732 0.4384,0.577016 0.764,1.048012 0.8361,1.543475 0.072,0.495463 0.2438,0.889623 -0.2573,1.221925 -0.501,0.332304 -1.5863,-0.310987 -2.3152,-0.450185 -0.7289,-0.139198 -1.3485,-0.205389 -2.058,-0.385867 -0.7093,-0.180479 -1.5901,-0.259846 -2.1865,-0.707428 z"
           style="fill:#f0c808;fill-opacity:1;fill-rule:evenodd;stroke:#000000;stroke-width:0.50932205px;stroke-linecap:butt;stroke-linejoin:miter;stroke-opacity:1" />
        <path
           sodipodi:nodetypes="zzzzzzzzzzzzzzzzzzzzzzzzzzzzzzzzzzzz"
           inkscape:connector-curvature="0"
           id="path10432"
           d="m 1241.2305,-96.002473 c -0.5548,-0.428416 -1.4791,-1.736411 -1.6721,-2.057972 -0.1929,-0.32156 -1.2219,-2.250905 -1.4149,-2.508155 -0.1929,-0.25724 -1.4009,-1.70678 -1.9293,-2.31522 -0.5283,-0.60843 -0.9003,-1.02898 -1.2219,-1.35054 -0.3216,-0.32156 -0.7378,-1.36142 -1.0933,-2.12228 -0.3555,-0.76087 -0.7916,-1.74198 -1.029,-2.44384 -0.2373,-0.70186 -0.5048,-0.78413 -0.4502,-1.73642 0.055,-0.95229 1.2563,-2.59258 1.4149,-3.66576 0.1586,-1.07318 -0.3109,-1.59713 -0.1929,-2.57247 0.1179,-0.97534 1.0289,-2.89402 1.0289,-3.15127 0,-0.25725 -0.1929,-2.95834 -0.1929,-3.47283 0,-0.51449 -0.7717,-2.70108 -0.836,-3.08696 -0.064,-0.38587 -0.047,-0.76856 0.2572,-0.96467 0.3043,-0.19611 0.667,-0.14277 1.1576,0.19294 0.4906,0.33571 0.8037,1.55122 1.2219,2.05797 0.4183,0.50674 0.6224,0.35869 1.1576,1.02898 0.5353,0.67029 1.5435,2.89402 1.7364,3.15127 0.193,0.25725 0.9248,1.08209 1.5435,1.41486 0.6188,0.33277 1.7365,0.32156 2.058,0.51449 0.3216,0.19294 2.3179,0.71057 2.9583,1.02899 0.6405,0.31842 0.6641,0.0495 0.9647,0.64312 0.3005,0.59359 -0.047,1.74634 -0.1286,2.82971 -0.082,1.08337 -0.245,2.52959 -0.3859,3.66576 -0.1409,1.13618 -0.4502,2.89402 -0.4502,3.15127 0,0.25724 0.059,1.4272 0.2573,2.1866 0.1987,0.7594 0.5323,1.44121 0.9647,2.31522 0.4323,0.874 1.147,1.92884 1.6721,2.89402 0.525,0.965181 1.1521,2.0909 1.4791,2.894019 0.3271,0.80312 0.4697,1.216236 0.5788,1.865041 0.1091,0.648807 0.3262,1.477061 0.064,1.993661 -0.262,0.516601 -0.6688,0.725066 -1.222,0.836053 -0.5531,0.110986 -1.1576,-0.257249 -1.865,-0.385873 -0.7074,-0.128624 -2.3152,-0.836047 -2.7654,-1.028983 -0.4502,-0.192937 -1.638,-0.860948 -2.2509,-1.157613 -0.6129,-0.296667 -0.86,-0.214702 -1.4149,-0.643118 z"
           style="fill:#f18a89;fill-opacity:1;fill-rule:evenodd;stroke:#000000;stroke-width:0.50932205px;stroke-linecap:butt;stroke-linejoin:miter;stroke-opacity:1" />
        <path
           sodipodi:nodetypes="zzzzzzzzzzzzzzzzzzzzzz"
           inkscape:connector-curvature="0"
           id="path10434"
           d="m 1251.842,-92.529643 c -0.2337,-0.309001 0.064,-1.607787 0.064,-2.057972 0,-0.450185 -0.1929,-2.122281 -0.3215,-2.443841 -0.1286,-0.321561 -0.9328,-1.371284 -1.3506,-2.057972 -0.4177,-0.686688 -0.7568,-1.447722 -1.1575,-2.057972 -0.4009,-0.61025 -1.1577,-1.35054 -1.222,-1.60779 -0.064,-0.25725 -0.4502,-1.22192 -0.6431,-1.92935 -0.1929,-0.70743 -0.3858,-0.90036 -0.4502,-1.15761 -0.064,-0.25725 -0.604,-1.43475 -0.5788,-1.86504 0.026,-0.43029 -0.2509,-0.49415 0.2573,-0.5788 0.5081,-0.0846 1.5434,1.54347 1.672,1.80072 0.1287,0.25725 1.4149,2.1866 1.8008,2.44385 0.3859,0.25724 1.9936,1.1576 2.5724,1.6721 0.5789,0.51449 1.5435,1.86504 1.9294,2.44384 0.3859,0.578804 1.4148,1.86504 1.7364,2.186596 0.3216,0.32156 1.2219,2.701084 1.2863,2.958333 0.064,0.257248 0.6486,2.600262 0.3215,3.215584 -0.3271,0.615322 -0.4502,0.578804 -0.836,0.45018 -0.3859,-0.128624 -2.2509,-0.578804 -2.5082,-0.578804 -0.2573,0 -1.4903,-0.278981 -1.865,-0.45018 -0.3747,-0.171198 -0.3264,-0.264373 -0.4502,-0.32156 -0.1238,-0.05719 -0.024,0.244688 -0.2572,-0.06431 z"
           style="fill:#f0c808;fill-opacity:1;fill-rule:evenodd;stroke:#000000;stroke-width:0.50932205px;stroke-linecap:butt;stroke-linejoin:miter;stroke-opacity:1" />
        <path
           sodipodi:nodetypes="czzzzzzzzzzzzzzzzzzzzzzzzzzzzzzcc"
           inkscape:connector-curvature="0"
           id="path10436"
           d="m 1246.1825,-110.66552 c 0.193,-0.5145 0.9647,-1.99366 1.029,-2.44384 0.064,-0.45018 -0.1837,-2.50208 0.1286,-3.21558 0.3124,-0.71351 0.7717,-0.83605 1.029,-1.02899 0.2573,-0.19294 1.6294,-1.05447 2.2509,-1.35054 0.6215,-0.29609 0.7994,-0.61855 1.4149,-0.5145 0.6155,0.10405 1.6721,1.15761 1.7364,1.41486 0.064,0.25725 2.7654,2.31521 3.0227,2.50815 0.2572,0.19294 3.8458,2.10875 4.5661,3.02265 0.7202,0.9139 0.3858,1.15761 0.5144,1.41486 0.1287,0.25724 0.9004,1.80072 1.029,2.12228 0.1287,0.32156 0.7075,2.76539 0.7075,3.02264 0,0.25725 0.7717,1.80073 0.7717,2.12229 0,0.32155 0.055,1.90507 0.1929,2.89402 0.1375,0.98895 0.4934,2.013049 0.6431,3.022648 0.1498,1.009598 0.193,2.443841 0.2573,3.022645 0.064,0.578804 0.064,1.607797 0.064,1.865041 0,0.257248 -0.9647,1.157607 -1.3505,1.286231 -0.3859,0.128624 -2.1223,0 -2.4439,0.128624 -0.3215,0.128625 -1.2219,0.12862 -1.6721,0.06431 -0.4502,-0.06431 -1.3505,-0.06431 -1.6077,-0.450179 -0.2573,-0.385873 -0.8361,-3.151267 -0.9004,-3.53714 -0.064,-0.385874 0,-1.672106 0,-2.122286 0,-0.450179 -0.193,-1.607787 -0.4502,-1.865035 -0.2573,-0.257249 -0.9647,-0.707423 -1.6721,-1.093299 -0.7074,-0.38587 -0.6431,-0.38587 -1.1576,-1.0933 -0.5145,-0.70743 -0.2573,-0.0643 -0.8361,-1.02898 -0.5788,-0.96468 -0.4501,-1.0933 -0.9647,-1.6078 -0.5144,-0.51449 -1.0932,-0.77174 -1.7363,-1.28623 -0.6432,-0.51449 -0.5146,-0.51449 -1.2863,-1.0933 -0.7717,-0.57881 -1.5678,-1.4218 -1.8007,-1.6721 -0.233,-0.2503 -0.6011,-0.42572 -0.9245,-0.81998 -0.6666,-0.78421 -0.7348,-1.12446 -0.5547,-1.68817 z"
           style="fill:#f18a89;fill-opacity:1;fill-rule:evenodd;stroke:#000000;stroke-width:0.50932205px;stroke-linecap:butt;stroke-linejoin:miter;stroke-opacity:1" />
        <path
           sodipodi:nodetypes="zzzzzzzzzzzzzzzzzzzzzzzzzzzzzzzzzz"
           inkscape:connector-curvature="0"
           id="path10438"
           d="m 1267.1481,-92.851199 c -0.5897,-0.246124 -1.0138,-1.8661 -1.2219,-2.894025 -0.2081,-1.027924 0.1929,-2.443845 0,-3.151273 -0.1929,-0.707428 -1.2138,-5.809463 -1.4148,-7.524463 -0.2012,-1.71499 -0.083,-1.08267 -0.1287,-2.70108 -0.046,-1.61842 -0.161,-4.8743 -0.064,-7.00997 0.097,-2.13567 0.5788,-5.46649 0.5788,-5.78805 0,-0.32156 -0.1286,-2.65752 -0.1286,-3.98732 0,-1.3298 0.1286,-3.08696 0.1286,-3.98732 0,-0.90036 0.1929,-1.99366 0,-2.95833 -0.1929,-0.96468 -0.3216,-1.80073 -0.5145,-3.15128 -0.1929,-1.35054 -0.3121,-2.48394 0.1287,-3.40851 0.4407,-0.92457 1.1815,-1.30217 2.0579,-1.80072 0.8764,-0.49856 2.3516,-0.90174 3.1513,-1.02899 0.7997,-0.12726 1.0553,-0.16946 1.5434,0 0.4882,0.16946 0.6139,0.14601 1.222,0.96467 0.6081,0.81867 1.1184,3.0029 1.6721,4.24457 0.5536,1.24167 1.5435,2.95833 1.6077,3.21558 0.064,0.25725 0.8481,2.15374 1.3506,3.3442 0.5026,1.19046 1.6721,3.53714 1.6721,3.79439 0,0.25725 1.066,3.69876 1.029,4.95199 -0.037,1.25324 -0.5619,1.59716 -0.6431,2.37953 -0.081,0.78238 0.1286,1.92936 0.1286,2.25092 0,0.32156 -0.5788,2.57246 -0.6431,2.82971 -0.064,0.25725 -1.0831,1.92905 -1.5435,2.7654 -0.4604,0.83635 -0.8695,1.57482 -1.2219,2.2509 -0.3524,0.67608 -0.6423,1.17758 -0.9004,1.80073 -0.2581,0.62316 -0.3334,0.91363 -0.6431,1.92935 -0.3097,1.01571 -0.7772,3.06878 -1.1576,4.18025 -0.3804,1.11148 -0.5602,1.803977 -1.029,2.508155 -0.4688,0.704179 -1.0866,0.999901 -1.6721,1.672105 -0.5855,0.672203 -1.3609,1.69472 -1.8007,2.379529 -0.4398,0.684809 -0.5781,1.38447 -0.9004,1.672104 -0.3222,0.287635 -0.053,0.503373 -0.6431,0.257248 z"
           style="fill:#f18a89;fill-opacity:1;fill-rule:evenodd;stroke:#000000;stroke-width:0.50932205px;stroke-linecap:butt;stroke-linejoin:miter;stroke-opacity:1" />
        <path
           sodipodi:nodetypes="zzzzzzzzzzzzzzzzzzzzzzz"
           inkscape:connector-curvature="0"
           id="path10440"
           d="m 1270.5566,-92.722579 c -0.109,-0.194083 -0.3215,-0.257244 -0.2572,-0.643116 0.064,-0.385873 0.9646,-2.186593 1.1576,-2.443842 0.1929,-0.257248 1.1888,-1.336023 1.6721,-2.186596 0.4832,-0.850572 1.029,-2.508147 1.1576,-2.894027 0.1286,-0.38587 0.5145,-1.41485 0.7717,-1.92934 0.2573,-0.5145 0.7718,-2.50816 0.9647,-3.02265 0.1929,-0.5145 0.3216,-0.96467 0.4502,-1.54348 0.1286,-0.5788 0.092,-1.70734 0.4502,-1.99366 0.3581,-0.28631 0.4251,-0.18744 0.7074,0 0.2823,0.18745 0.5788,0.96467 0.5145,1.22192 -0.064,0.25725 -0.4502,1.54348 -0.6431,1.80073 -0.193,0.25724 -0.4502,1.09329 -0.3859,1.47916 0.064,0.38588 0.1286,0.45019 0.1286,0.96468 0,0.51449 -0.2686,2.3727 -0.4501,3.08696 -0.1816,0.71425 -0.3216,0.57879 -0.4502,1.221915 -0.1287,0.643121 -0.5789,1.865041 -0.7075,2.443845 -0.1286,0.578803 -0.2572,0.707428 -0.3215,1.286231 -0.064,0.578806 -0.1929,1.028986 -0.3216,1.350546 -0.1286,0.321561 -1.2219,1.028984 -1.4792,1.350544 -0.2572,0.32156 -1.2219,0.514492 -1.4791,0.707428 -0.2572,0.192936 -0.8166,0.357666 -1.0933,0.257248 -0.2768,-0.100418 -0.2768,-0.320414 -0.3859,-0.514496 z"
           style="fill:#fff1d0;fill-opacity:1;fill-rule:evenodd;stroke:#000000;stroke-width:0.50932205px;stroke-linecap:butt;stroke-linejoin:miter;stroke-opacity:1" />
        <path
           sodipodi:nodetypes="zzzzzzzzzzzzzzzzzzzzzzz"
           inkscape:connector-curvature="0"
           id="path10442"
           d="m 1276.3447,-94.201742 c -0.2603,-0.165983 -0.9004,-0.321561 -0.7075,-0.964677 0.193,-0.643118 0.1286,-0.643112 0.9647,-1.800725 0.836,-1.157613 0.8704,-1.295038 1.029,-1.929353 0.1586,-0.634315 0,-1.575633 0,-1.736413 0,-0.16078 0.6431,-1.54348 0.9004,-2.05797 0.2572,-0.51449 0.7074,-2.12228 0.6431,-2.50815 -0.064,-0.38587 0.1286,-2.95834 0.1929,-3.66577 0.064,-0.70742 -0.1929,-2.89402 -0.1286,-3.47282 0.064,-0.57881 0.064,-1.54348 0.1286,-1.99366 0.064,-0.45019 -0.5435,-0.71233 0.1286,-0.83605 0.6721,-0.12373 1.4792,2.57246 1.6078,2.82971 0.1287,0.25725 0.5145,0.5788 0.7074,0.90036 0.193,0.32156 0.8361,1.35055 0.8361,1.73641 0,0.38588 0.2572,2.95833 0.1929,3.21558 -0.064,0.25725 -0.1285,1.60779 -0.4501,2.05797 -0.3216,0.45019 -1.2863,1.35055 -1.4792,1.80073 -0.1929,0.45019 -0.5145,2.05797 -0.7718,2.70109 -0.2572,0.643116 -0.7717,1.607792 -0.7717,1.99366 0,0.385867 -0.3215,1.414855 -0.4502,1.929347 -0.1286,0.514492 -0.3132,1.347398 -0.7074,1.672106 -0.3942,0.324709 -0.9045,0.255639 -1.2219,0.257244 -0.3175,0.0015 -0.3829,0.03738 -0.6431,-0.128619 z"
           style="fill:#fff1d0;fill-opacity:1;fill-rule:evenodd;stroke:#000000;stroke-width:0.50932205px;stroke-linecap:butt;stroke-linejoin:miter;stroke-opacity:1" />
        <path
           sodipodi:nodetypes="zzzzzzzzzzzzzzzz"
           inkscape:connector-curvature="0"
           id="path10444"
           d="m 1281.361,-92.658267 c -0.5455,-0.457774 -1.9294,-1.929343 -1.9294,-2.186591 0,-0.257244 -0.1929,-1.672107 0.193,-2.508159 0.3858,-0.836052 1.5434,-2.250908 1.7364,-2.701083 0.193,-0.45018 0.5144,-1.60779 0.6431,-1.92935 0.1286,-0.32156 0.7717,-2.57247 0.9647,-3.02265 0.1929,-0.45018 0.7085,-1.62017 0.7717,-2.1866 0.063,-0.56642 -0.5486,-0.83582 -0.1286,-1.09329 0.42,-0.25747 1.1236,0.49985 1.5434,1.02899 0.4199,0.52913 0.7075,1.80072 0.7718,2.05797 0.064,0.25725 0.1287,2.2509 0,2.50815 -0.1286,0.25725 -0.7717,2.829707 -0.9004,3.151267 -0.1286,0.321561 -1.2219,3.022654 -1.2219,3.344209 0,0.32156 -0.2572,1.865037 -0.2572,2.186593 0,0.32156 -0.443,1.889921 -1.029,2.057972 -0.586,0.16805 -0.6121,-0.249655 -1.1576,-0.707428 z"
           style="fill:#fff1d0;fill-opacity:1;fill-rule:evenodd;stroke:#000000;stroke-width:0.50932205px;stroke-linecap:butt;stroke-linejoin:miter;stroke-opacity:1" />
        <path
           sodipodi:nodetypes="zzzzzzzzzzzzzzzzz"
           inkscape:connector-curvature="0"
           id="path10446"
           d="m 1284.3836,-91.436343 c -0.3544,-0.231777 -0.5695,-1.061824 -0.5788,-1.736416 -0.01,-0.674592 0.4502,-1.54348 0.6431,-2.122284 0.193,-0.578806 0.4502,-2.25091 0.6432,-2.70109 0.193,-0.450179 1.2218,-1.865035 1.2862,-2.122287 0.064,-0.25724 0.1286,-1.41485 0.1929,-2.05797 0.064,-0.64311 0.1634,-1.70279 0.5788,-1.99366 0.4155,-0.29086 0.577,-0.15736 0.9647,0.0643 0.3876,0.22168 0.6109,0.95289 0.9646,1.41486 0.3538,0.46197 1.0934,1.02898 1.1577,1.35054 0.064,0.32156 0.1286,1.414855 0.064,1.736415 -0.064,0.321561 -0.6431,2.122284 -0.9004,2.636781 -0.2572,0.514497 -0.5788,1.479163 -0.6431,2.186593 -0.064,0.707428 -0.3216,1.736416 -0.5145,1.993665 -0.1929,0.257248 -0.7717,0.514486 -1.4791,0.771735 -0.7075,0.257248 -1.2699,0.435225 -1.6721,0.514496 -0.4022,0.07927 -0.3531,0.29609 -0.7075,0.06431 z"
           style="fill:#fff1d0;fill-opacity:1;fill-rule:evenodd;stroke:#000000;stroke-width:0.50932205px;stroke-linecap:butt;stroke-linejoin:miter;stroke-opacity:1" />
        <path
           sodipodi:nodetypes="zzzzzzzzzzzzzzzzzz"
           inkscape:connector-curvature="0"
           id="path10448"
           d="m 1288.5639,-91.886527 c 0.3434,0.570675 2.0259,0.04018 2.7011,0.06431 0.6752,0.02409 1.0933,0.06431 1.3505,0.06431 0.2572,0 1.5928,0.09587 2.1223,-0.385868 0.5294,-0.481737 0.2572,-1.479163 0.5788,-2.057971 0.3216,-0.578809 0.7074,-1.350546 1.1576,-1.800731 0.4502,-0.450185 1.2863,-1.093295 1.4149,-1.350544 0.1286,-0.257248 -0.3216,-1.157607 -0.5788,-1.286231 -0.2573,-0.128625 -0.3859,-0.12862 -0.9004,-0.321556 -0.5145,-0.192936 -1.131,-0.181186 -1.6721,-0.385872 -0.5412,-0.204687 -1.1576,-0.643116 -1.5435,-0.83605 -0.3859,-0.19293 -1.0333,-1.20265 -1.6078,-0.96467 -0.5745,0.23798 -0.3859,1.414847 -0.4502,1.80072 -0.064,0.385872 -0.1286,0.643116 -0.3215,1.286231 -0.193,0.643116 -0.193,0.707428 -0.3859,1.093301 -0.1929,0.385872 -0.7717,1.22192 -0.9004,1.800725 -0.1286,0.578804 -0.2039,1.576581 -0.3858,2.122284 -0.1819,0.545703 -0.9222,0.586933 -0.5788,1.157608 z"
           style="fill:#fff1d0;fill-opacity:1;fill-rule:evenodd;stroke:#000000;stroke-width:0.50932205px;stroke-linecap:butt;stroke-linejoin:miter;stroke-opacity:1" />
        <path
           sodipodi:nodetypes="zzzzzzzzzzzzzzz"
           inkscape:connector-curvature="0"
           id="path10450"
           d="m 1296.024,-91.757903 c 0.2862,-0.377764 1.7275,-0.0025 2.5082,-0.192936 0.7806,-0.190212 1.8007,-0.643111 2.1223,-0.90036 0.3216,-0.257248 0.7923,-0.604804 1.029,-1.0933 0.2366,-0.488496 0.2572,-1.543482 0.2572,-1.736413 0,-0.192932 0,-1.800724 0,-1.99366 0,-0.192936 -0.054,-1.220565 -0.3859,-1.54348 -0.3315,-0.322915 -0.7812,-0.308619 -1.1576,-0.257249 -0.3763,0.05137 -0.5913,0.214975 -0.9646,0.514497 -0.3734,0.299522 -0.7718,0.836047 -1.1577,1.350544 -0.3858,0.514497 -0.6778,0.899351 -0.9646,1.479163 -0.2869,0.579812 -0.6432,1.736418 -0.7075,1.993667 -0.064,0.257248 -0.3723,1.088895 -0.4502,1.543475 -0.078,0.45458 0.183,1.140031 -0.064,1.157612 -0.2473,0.01757 -0.3506,0.0562 -0.064,-0.32156 z"
           style="fill:#fff1d0;fill-opacity:1;fill-rule:evenodd;stroke:#000000;stroke-width:0.50932205px;stroke-linecap:butt;stroke-linejoin:miter;stroke-opacity:1" />
        <path
           sodipodi:nodetypes="zzzzzzzzzzzzz"
           inkscape:connector-curvature="0"
           id="path10452"
           d="m 1302.7124,-94.201742 c -0.27,-0.305848 0.015,-1.425483 0,-1.929355 -0.015,-0.503872 0.1286,-0.836047 -0.064,-1.093295 -0.1929,-0.257249 -0.4857,-1.413033 0,-1.99366 0.4857,-0.580627 2.3796,-0.192931 2.5082,-0.45018 0.1286,-0.257248 0.8784,-0.706748 1.3505,-1.028988 0.4721,-0.32224 0.9948,-1.22154 1.4792,-0.90036 0.4843,0.32117 -0.2572,1.41485 -0.2572,1.736412 0,0.321555 -0.01,1.546989 -0.193,2.122284 -0.1878,0.575294 -0.1286,0.77174 -0.7718,1.286232 -0.6431,0.514491 -0.9003,0.64311 -1.3505,0.964671 -0.4502,0.321562 -1.6836,1.240996 -2.1866,1.350551 -0.5029,0.109555 -0.2445,0.241536 -0.5145,-0.06431 z"
           style="fill:#fff1d0;fill-opacity:1;fill-rule:evenodd;stroke:#000000;stroke-width:0.50932205px;stroke-linecap:butt;stroke-linejoin:miter;stroke-opacity:1" />
        <path
           sodipodi:nodetypes="zzzzzzzzzzzzzz"
           inkscape:connector-curvature="0"
           id="path10454"
           d="m 1308.3719,-97.996133 c -0.097,-0.128624 -0.056,-1.907945 0.1286,-2.958337 0.1843,-1.05039 0.7074,-3.02264 1.029,-3.27989 0.3215,-0.25725 1.4148,-1.92935 1.8007,-2.57246 0.3859,-0.64312 1.1576,-1.99366 1.2219,-2.37954 0.064,-0.38587 0.7636,-1.084 1.1576,-1.02898 0.3941,0.055 0.3859,0.32156 0.4502,0.70743 0.064,0.38587 -0.3858,1.80072 -0.4502,2.31521 -0.064,0.5145 -0.9646,2.37953 -1.029,2.82972 -0.064,0.45018 -0.2572,2.12228 -0.1929,2.50815 0.064,0.38587 -0.4501,1.60779 -0.7717,2.057974 -0.3216,0.450185 -0.5145,0.707423 -0.9004,1.093296 -0.3859,0.385872 -1.2862,0.578803 -1.6078,0.77174 -0.3216,0.192936 -0.7396,0.06431 -0.836,-0.06431 z"
           style="fill:#fff1d0;fill-opacity:1;fill-rule:evenodd;stroke:#000000;stroke-width:0.50932205px;stroke-linecap:butt;stroke-linejoin:miter;stroke-opacity:1" />
        <path
           sodipodi:nodetypes="zzzzzzzzzzzzzzz"
           inkscape:connector-curvature="0"
           id="path10456"
           d="m 1312.8093,-100.50428 c 0.019,-0.37629 0.193,-1.60779 0.193,-1.92935 0,-0.32156 0.1286,-2.37953 0.6431,-3.02265 0.5145,-0.64312 0.9647,-1.15761 1.1576,-2.25091 0.193,-1.0933 0.3216,-1.54348 0.4502,-2.63677 0.1287,-1.0933 0.7074,-1.6721 0.7717,-1.92935 0.064,-0.25725 0.3148,-0.80956 0.7718,-0.77174 0.4569,0.0378 0.7716,0.83605 0.9646,1.35054 0.193,0.51449 0.6431,1.67211 0.9004,2.7654 0.2573,1.0933 0.3216,3.21558 0.3216,3.79439 0,0.5788 -0.2573,1.86504 -0.5789,2.50815 -0.3215,0.64312 -1.1575,1.22192 -1.8007,1.73641 -0.6431,0.5145 -2.5081,0.64312 -2.9583,0.900368 -0.4502,0.257248 -0.7137,-0.03907 -0.8361,-0.192938 -0.1223,-0.15385 -0.019,0.0547 0,-0.32155 z"
           style="fill:#fff1d0;fill-opacity:1;fill-rule:evenodd;stroke:#000000;stroke-width:0.50932205px;stroke-linecap:butt;stroke-linejoin:miter;stroke-opacity:1" />
        <path
           sodipodi:nodetypes="zzzzzzzzzzzzzzzzz"
           inkscape:connector-curvature="0"
           id="path10458"
           d="m 1319.4978,-104.4916 c 0.6162,0.15306 1.7363,-2.12229 1.9936,-2.44385 0.2573,-0.32156 0.7717,-1.15761 0.8361,-1.60779 0.064,-0.45018 0.1286,-1.6721 0.1929,-2.63678 0.064,-0.96467 -0.3859,-2.70108 -0.3859,-3.15126 0,-0.45018 -0.7074,-1.28623 -0.836,-1.60779 -0.1287,-0.32157 -0.4502,-1.15761 -0.5788,-1.41486 -0.1287,-0.25725 -0.4568,-0.47632 -0.7074,-0.5788 -0.2506,-0.10249 -0.4502,-0.64312 -0.7075,-0.0643 -0.2572,0.57881 -0.836,1.0933 -0.9646,1.6078 -0.1287,0.51449 -0.8361,1.92934 -0.9004,2.2509 -0.064,0.32156 -0.064,0.70743 0.064,1.0933 0.1287,0.38587 0.2572,1.6721 0.4502,2.05797 0.193,0.38587 0.6431,0.64312 0.7074,1.35054 0.064,0.70743 0.3216,2.05798 0.5145,2.70109 0.193,0.64312 0.064,1.22192 0.193,1.80073 0.1286,0.5788 -0.4877,0.49005 0.1286,0.64312 z"
           style="fill:#fff1d0;fill-opacity:1;fill-rule:evenodd;stroke:#000000;stroke-width:0.50932205px;stroke-linecap:butt;stroke-linejoin:miter;stroke-opacity:1" />
        <path
           sodipodi:nodetypes="zzzzzzzzzzzzzzzz"
           inkscape:connector-curvature="0"
           id="path10460"
           d="m 1323.6137,-110.08671 c -0.4955,-0.42943 -1.1909,-2.1513 -1.2862,-3.15128 -0.095,-0.99997 0.4501,-1.80072 0.5145,-2.57246 0.064,-0.77174 0.1929,-2.57246 0.2572,-2.95834 0.064,-0.38587 0.2573,-0.64312 0.5788,-1.41486 0.3216,-0.77174 0.5415,-1.58706 0.8361,-1.92935 0.2945,-0.34228 0.2041,-0.36816 0.5144,-0.32155 0.3104,0.0466 0.7718,0.70742 0.8361,0.96467 0.064,0.25725 0.064,2.89402 0.1286,3.2799 0.064,0.38587 0.1287,1.60779 0.2573,2.25091 0.1287,0.64311 0,1.47916 -0.064,2.12228 -0.064,0.64312 -0.193,0.96468 -0.3216,1.54348 -0.1287,0.5788 -0.2572,1.15761 -0.4501,1.47917 -0.193,0.32156 -0.352,0.50339 -0.5789,0.64311 -0.2268,0.13973 -0.4968,0.19069 -0.7074,0.19293 -0.2106,0.002 -0.019,0.30082 -0.5145,-0.12861 z"
           style="fill:#fff1d0;fill-opacity:1;fill-rule:evenodd;stroke:#000000;stroke-width:0.50932205px;stroke-linecap:butt;stroke-linejoin:miter;stroke-opacity:1" />
        <path
           sodipodi:nodetypes="zzzzzzzzzzzzzzz"
           inkscape:connector-curvature="0"
           id="path10462"
           d="m 1316.861,-119.15466 c 0,-0.16078 -0.1929,-1.6078 -0.1929,-1.86504 0,-0.25725 0.1286,-1.60779 0.3858,-2.05797 0.2573,-0.45019 0.5145,-1.02898 0.7718,-1.02898 0.2572,0 1.2219,0 1.5435,0.12862 0.3215,0.12862 0.3215,0.32155 0.7074,1.02898 0.3858,0.70743 0.4501,1.02899 0.5145,1.67211 0.064,0.64311 0.1286,1.28623 0.1929,1.60779 0.064,0.32156 -0.1412,0.60821 -0.3859,0.77173 -0.2446,0.16353 -0.5608,-0.0837 -0.9003,0.0643 -0.3396,0.14802 -0.7074,0.64312 -0.9647,0.90037 -0.2573,0.25724 -0.4502,0.77174 -0.7074,0.90036 -0.2573,0.12862 -0.1286,0.5145 -0.3859,0.12862 -0.2573,-0.38587 -0.5145,-0.70743 -0.5145,-1.35054 0,-0.64313 -0.064,-0.73959 -0.064,-0.90037 z"
           style="fill:#fff1d0;fill-opacity:1;fill-rule:evenodd;stroke:#000000;stroke-width:0.50932205px;stroke-linecap:butt;stroke-linejoin:miter;stroke-opacity:1" />
        <path
           sodipodi:nodetypes="zzzzzzzzzzzzzzzzzzzz"
           inkscape:connector-curvature="0"
           id="path10464"
           d="m 1227.7251,-144.42913 c -0.4155,-0.1359 -0.836,-1.0933 -0.836,-1.41486 0,-0.32155 -0.083,-1.26371 -0.064,-1.73641 0.019,-0.47269 -0.06,-0.71963 0.1286,-1.09329 0.1886,-0.37367 0.5054,-0.66229 1.029,-0.96468 0.5237,-0.30239 1.1954,-0.55976 2.1223,-0.64311 0.9269,-0.0834 2.4237,0.49867 3.3442,0.38586 0.9205,-0.11281 1.2123,-0.51537 2.058,-0.77174 0.8457,-0.25636 2.2351,-0.58571 3.0227,-0.70742 0.7875,-0.12172 1.3454,-0.16096 1.6721,-0.12862 0.3266,0.0323 0.4185,-0.0271 0.4501,0.12862 0.032,0.15567 -0.9647,1.22192 -1.4148,1.73641 -0.4502,0.51449 -0.8361,0.57881 -1.0934,1.28623 -0.2572,0.70743 -0.4757,1.70889 -1.0932,1.80073 -0.6176,0.0918 -0.6282,-0.82681 -1.2219,-1.0933 -0.5938,-0.26649 -1.5435,-0.38587 -2.251,-0.25725 -0.7074,0.12863 -1.4792,0.57881 -2.0579,0.83606 -0.5788,0.25724 -1.0933,0.5788 -1.5435,1.02898 -0.4502,0.45019 -1.1254,1.12546 -1.3506,1.22192 -0.225,0.0965 -0.4848,0.52177 -0.9003,0.38587 z"
           style="fill:#f0c808;fill-opacity:1;fill-rule:evenodd;stroke:#000000;stroke-width:0.50932205px;stroke-linecap:butt;stroke-linejoin:miter;stroke-opacity:1" />
        <path
           sodipodi:nodetypes="zzzzzzzzzzzzzzzzzzzzz"
           inkscape:connector-curvature="0"
           id="path10466"
           d="m 1240.5231,-143.33583 c -0.322,-0.18474 -0.1929,-0.90036 -0.5145,-1.35054 -0.3216,-0.45019 -0.7717,-0.83605 -0.9003,-1.15762 -0.1287,-0.32156 -0.1287,-0.70742 0.064,-1.41485 0.193,-0.70743 0.8361,-1.80072 1.0933,-2.12228 0.2573,-0.32156 1.2863,-0.77174 1.6078,-1.15761 0.3216,-0.38587 1.2863,-0.96467 1.6721,-1.02899 0.3859,-0.0643 1.6078,-0.64311 3.2156,-0.64311 1.6078,0 4.5661,-0.57881 4.952,-0.5145 0.3859,0.0643 2.2674,0.89126 2.9584,1.02899 0.6909,0.13773 0.7172,-0.20268 1.0933,0.0643 0.376,0.267 0.3858,0.96467 0.6431,1.54348 0.2572,0.57881 0.5788,1.54348 0.2572,1.86504 -0.3215,0.32156 -0.3215,0.45018 -0.8361,0.5788 -0.5144,0.12863 -0.836,-0.12862 -1.6077,-0.0643 -0.7718,0.0643 -1.3506,0.25725 -3.2156,0.32156 -1.865,0.0643 -2.9583,0.38587 -3.2156,0.51449 -0.2572,0.12863 -2.3152,1.0933 -2.7011,1.28623 -0.3858,0.19294 -1.9936,0.90036 -2.4438,1.15761 -0.4502,0.25725 -1.0933,0.83605 -1.3506,0.96468 -0.2572,0.12862 -0.4497,0.31337 -0.7717,0.12862 z"
           style="fill:#f0c808;fill-opacity:1;fill-rule:evenodd;stroke:#000000;stroke-width:0.50932205px;stroke-linecap:butt;stroke-linejoin:miter;stroke-opacity:1" />
        <path
           sodipodi:nodetypes="zzzzzzzzzzzzzzzz"
           inkscape:connector-curvature="0"
           id="path10468"
           d="m 1256.9226,-143.52876 c -0.221,-0.47412 -0.5145,-0.70743 0.1929,-1.73642 0.7074,-1.02898 1.2862,-1.86504 1.3506,-2.37953 0.064,-0.51449 -0.064,-1.47917 0.1286,-1.99366 0.1929,-0.51449 0.6431,-1.35054 0.836,-1.6721 0.1929,-0.32156 1.865,-0.96467 2.1223,-0.90036 0.2573,0.0643 0.6936,2e-4 1.029,0.32155 0.3353,0.32136 0.5145,1.02899 0.5788,1.6078 0.064,0.5788 -0.5145,2.70108 -0.7074,3.02264 -0.193,0.32156 -0.193,0.83605 -0.064,1.6721 0.1286,0.83606 0.3215,0.64312 0.3215,1.80073 0,1.15761 -0.096,1.62619 -0.3859,1.99366 -0.2897,0.36747 -0.064,0.45018 -0.7074,0.32156 -0.6431,-0.12863 -1.8007,-0.64312 -2.3152,-0.83606 -0.5145,-0.19293 -0.9647,-0.32155 -1.2219,-0.45017 -0.2573,-0.12863 -0.9367,-0.29763 -1.1576,-0.77174 z"
           style="fill:#fff1d0;fill-opacity:1;fill-rule:evenodd;stroke:#000000;stroke-width:0.50932205px;stroke-linecap:butt;stroke-linejoin:miter;stroke-opacity:1" />
        <path
           sodipodi:nodetypes="zzzzzzzzzzzzzzzzzz"
           inkscape:connector-curvature="0"
           id="path10470"
           d="m 1264.3827,-140.24887 c -0.3899,-0.27893 -0.4502,-1.6721 -0.4502,-2.37953 0,-0.70743 0.3859,-1.80073 0.4502,-2.25091 0.064,-0.45018 0.1929,-0.70743 0.064,-1.54348 -0.1286,-0.83605 -0.3858,-1.35054 -0.2572,-2.37953 0.1286,-1.02898 -0.027,-1.62132 0.1929,-2.05797 0.2195,-0.43665 -0.1929,-0.70743 0.6431,-0.5788 0.8361,0.12862 2.1866,0.32155 2.4438,0.38587 0.2573,0.0643 1.1577,0.38586 1.3506,1.09329 0.1929,0.70743 0.1286,2.12229 0.3216,2.44385 0.1929,0.32156 0.4501,0.64311 0.7074,1.1576 0.2573,0.51449 0.4502,0.64312 0.5145,1.15762 0.064,0.51449 0.2572,1.35054 -0.064,1.73641 -0.3216,0.38586 -0.1287,0.83605 -1.1576,0.83605 -1.029,0 -1.5435,-0.0643 -1.9294,0.19293 -0.3859,0.25725 -0.4502,0.32156 -0.9647,0.90036 -0.5144,0.57881 -1.0623,1.06145 -1.4148,1.22192 -0.3526,0.16048 -0.06,0.34325 -0.4502,0.0643 z"
           style="fill:#fff1d0;fill-opacity:1;fill-rule:evenodd;stroke:#000000;stroke-width:0.50932205px;stroke-linecap:butt;stroke-linejoin:miter;stroke-opacity:1" />
        <path
           sodipodi:nodetypes="zzzzzzzzzzzzzzzz"
           inkscape:connector-curvature="0"
           id="path10472"
           d="m 1274.6083,-139.863 c -0.3993,-0.39499 -0.7718,-1.60779 -0.9647,-2.1866 -0.1929,-0.5788 -0.064,-2.18659 -0.3216,-2.50815 -0.2572,-0.32156 -0.1929,-0.19293 -0.9646,-1.41485 -0.7718,-1.22193 -0.7075,-0.70743 -1.1577,-1.6078 -0.4501,-0.90036 -0.3858,-0.38586 -0.5788,-1.1576 -0.1929,-0.77174 -0.5965,-0.96746 -0.4502,-1.35055 0.1464,-0.38309 0.3859,-0.77174 0.9004,-0.51449 0.5145,0.25724 0.2573,0.77174 1.1576,1.41485 0.9004,0.64312 0.8361,0.5145 1.4792,0.90037 0.6431,0.38586 0.5788,-0.12863 0.836,0.77174 0.2573,0.90036 0.4502,1.02898 0.6431,1.80072 0.193,0.77174 0.3859,0.83606 0.3859,1.80073 0,0.96467 0.3859,3.73007 0.3859,3.98732 0,0.25724 -0.1857,0.39923 -0.4502,0.45018 -0.2645,0.0509 -0.5011,0.009 -0.9003,-0.38587 z"
           style="fill:#fff1d0;fill-opacity:1;fill-rule:evenodd;stroke:#000000;stroke-width:0.50932205px;stroke-linecap:butt;stroke-linejoin:miter;stroke-opacity:1" />
        <path
           sodipodi:nodetypes="zzzzzzzzzzzzzzzzzzzzz"
           inkscape:connector-curvature="0"
           id="path10474"
           d="m 1277.5666,-132.46717 c -0.064,-0.22509 -0.9647,-1.54347 -1.0933,-2.44384 -0.1286,-0.90036 -0.4502,-1.02898 0,-2.2509 0.4502,-1.22192 0.6431,-1.28624 0.6431,-2.12229 0,-0.83605 0.2573,-1.02899 -0.064,-2.82971 -0.3216,-1.80072 -0.5788,-2.05797 -0.5788,-2.7654 0,-0.70743 0.091,-2.77378 0.7074,-3.08695 0.6161,-0.31318 0.5145,0.0643 0.9004,0.38586 0.3858,0.32156 1.0933,1.0933 1.2862,1.6078 0.1929,0.51449 0.5145,1.54347 0.5788,2.2509 0.064,0.70743 -0.1929,3.2799 -0.2572,3.8587 -0.064,0.5788 0.5787,2.12228 0.6431,2.89402 0.064,0.77174 0.1929,2.31521 0.064,2.82971 -0.1287,0.5145 -0.6431,1.22192 -0.5788,1.92935 0.064,0.70743 0.1929,1.54348 0.1929,1.80073 0,0.25724 0,1.51132 0,1.6721 0,0.16078 -0.3215,0.90036 -0.5788,0.51449 -0.2572,-0.38587 -0.3215,-0.19293 -0.836,-1.15761 -0.5145,-0.96467 -0.6431,-1.15761 -0.8361,-1.86504 -0.1929,-0.70742 0.097,-1.72459 -0.2572,-1.6721 -0.3539,0.0525 0.1286,0.67527 0.064,0.45018 z"
           style="fill:#fff1d0;fill-opacity:1;fill-rule:evenodd;stroke:#000000;stroke-width:0.50932205px;stroke-linecap:butt;stroke-linejoin:miter;stroke-opacity:1" />
        <path
           sodipodi:nodetypes="zzzzzzzzzzzzzzzzzzzzz"
           inkscape:connector-curvature="0"
           id="path10476"
           d="m 1280.8465,-126.29325 c -0.2311,-0.61029 -0.6431,-1.35054 -0.6431,-2.12228 0,-0.77174 0.4502,-2.1866 0.4502,-2.63678 0,-0.45018 0.1929,-0.70743 0.2572,-1.60779 0.064,-0.90037 0.064,-1.15761 0.064,-2.50815 0,-1.35055 0.1929,-0.57881 0,-2.25091 -0.1929,-1.67211 -0.1286,-1.22192 -0.2572,-2.12229 -0.1287,-0.90036 -0.3216,-0.57879 -0.064,-2.2509 0.2572,-1.6721 0.3102,-3.37851 0.836,-3.92301 0.5258,-0.5445 0.1929,-0.12863 0.5145,-0.12863 0.3215,0 1.029,0.38587 1.2862,1.54349 0.2573,1.15761 0.064,2.12228 0.1287,2.82971 0.064,0.70742 0,2.12228 0.3858,2.95833 0.3859,0.83606 0.9647,1.73641 1.029,2.25091 0.064,0.5145 0.1286,1.86504 -0.1286,2.63678 -0.2573,0.77174 -0.5145,0.90036 -0.5145,1.92934 0,1.02899 0,2.44384 -0.1286,3.21558 -0.1287,0.77174 -1.029,1.86504 -1.2863,2.25091 -0.2572,0.38587 -0.4257,0.78813 -0.6431,1.02899 -0.2174,0.24086 -0.1852,0.54649 -0.5788,0.45018 -0.3935,-0.0963 -0.4763,-0.9332 -0.7074,-1.54348 z"
           style="fill:#fff1d0;fill-opacity:1;fill-rule:evenodd;stroke:#000000;stroke-width:0.50932205px;stroke-linecap:butt;stroke-linejoin:miter;stroke-opacity:1" />
        <path
           sodipodi:nodetypes="zzzzzzzzzzzzzzzzzz"
           inkscape:connector-curvature="0"
           id="path10478"
           d="m 1285.4126,-128.73709 c -0.032,-0.25725 -0.2573,-1.41486 -0.4502,-2.12228 -0.1929,-0.70743 -0.3858,-0.5145 -0.1929,-2.1866 0.1929,-1.6721 0.6431,-0.90036 0.5788,-2.89402 -0.064,-1.99366 0.2572,-2.12229 -0.3859,-3.02265 -0.6431,-0.90037 -0.7717,-0.12862 -0.9003,-1.54348 -0.1287,-1.41485 -0.5145,-2.44384 -0.2573,-2.82971 0.2573,-0.38587 0.7074,-0.96467 1.2219,-1.02899 0.5146,-0.0643 1.0934,-0.32155 1.8651,-0.25724 0.7717,0.0643 1.0933,0.0643 1.4792,0.90036 0.3858,0.83605 0.5787,0.83605 0.7073,2.12228 0.1287,1.28623 0.064,2.1866 0.064,2.95834 0,0.77174 -0.1286,1.92935 -0.1286,2.57246 0,0.64312 0.3858,2.05797 0.1929,2.57247 -0.1929,0.5145 -0.5788,1.28623 -0.9647,1.73641 -0.3859,0.45018 -1.1575,1.22192 -1.4791,1.73642 -0.3216,0.5145 -1.046,1.79035 -1.4149,1.60779 -0.3689,-0.18257 0.096,-0.0643 0.064,-0.32156 z"
           style="fill:#fff1d0;fill-opacity:1;fill-rule:evenodd;stroke:#000000;stroke-width:0.50932205px;stroke-linecap:butt;stroke-linejoin:miter;stroke-opacity:1" />
        <path
           sodipodi:nodetypes="zzzzzzzzzzzzzzzzz"
           inkscape:connector-curvature="0"
           id="path10480"
           d="m 1290.1717,-135.10394 c -0.032,-0.2894 -0.4502,-2.12229 -0.3216,-3.02265 0.1287,-0.90036 0.1286,-0.64312 0.193,-1.99366 0.064,-1.35054 0.064,-0.96467 0.064,-1.6721 0,-0.70743 -0.1286,-1.0933 -0.1929,-1.6721 -0.064,-0.57881 -0.1929,-1.41486 0.064,-1.47917 0.2573,-0.0643 1.029,0 1.4149,0.0643 0.3858,0.0643 1.3505,-0.0643 1.8007,-0.12862 0.4502,-0.0643 1.0186,-0.15492 1.4149,0 0.3962,0.15492 0.1286,-0.51449 0.836,0.77174 0.7075,1.28623 0.9647,3.27989 1.029,3.66576 0.064,0.38587 0.1286,0.83605 -0.064,1.80072 -0.1929,0.96468 -0.064,1.67211 -0.3215,1.80073 -0.2573,0.12863 -1.222,0.70743 -2.058,0.90036 -0.8361,0.19294 -3.087,0.96468 -3.2799,1.22193 -0.193,0.25725 -0.55,0.11932 -0.6432,0 -0.093,-0.11933 0.097,0.0321 0.064,-0.25725 z"
           style="fill:#fff1d0;fill-opacity:1;fill-rule:evenodd;stroke:#000000;stroke-width:0.50932205px;stroke-linecap:butt;stroke-linejoin:miter;stroke-opacity:1" />
        <path
           sodipodi:nodetypes="zzzzzzzzzzzzzzzz"
           inkscape:connector-curvature="0"
           id="path10482"
           d="m 1298.8537,-139.67007 c -0.1286,-0.0643 -1.1576,0.64312 -1.3505,-0.45018 -0.1929,-1.0933 -0.064,-1.54347 -0.064,-2.44384 0,-0.90036 0.1286,-0.96467 -0.1286,-1.47917 -0.2573,-0.51449 -0.5789,-0.96467 -0.1287,-1.02898 0.4502,-0.0643 1.3506,-0.25725 1.7364,-0.32156 0.3859,-0.0643 0.7075,-0.32156 1.7365,-0.0643 1.029,0.25725 0.836,0.12862 1.6721,0.51449 0.836,0.38587 1.3505,0.45018 1.4792,0.77174 0.1286,0.32156 0.3215,1.86504 0.3215,2.1866 0,0.32156 0.3858,0.77173 -0.1929,1.02898 -0.5788,0.25725 -2.2509,1.02898 -2.8297,1.28623 -0.5789,0.25725 -0.8898,0.43911 -1.2863,0.64312 -0.3964,0.20402 -0.7074,0.77174 -1.0933,0.5788 -0.3859,-0.19293 -0.9004,-0.64311 -0.5788,-0.90036 0.3216,-0.25725 0.836,-0.25725 0.7074,-0.32156 z"
           style="fill:#fff1d0;fill-opacity:1;fill-rule:evenodd;stroke:#000000;stroke-width:0.50932205px;stroke-linecap:butt;stroke-linejoin:miter;stroke-opacity:1" />
        <path
           sodipodi:nodetypes="zzzzzzzzzzzzzzz"
           inkscape:connector-curvature="0"
           id="path10484"
           d="m 1306.3782,-137.16191 c -0.097,-0.12863 -0.9003,-0.64312 -0.9647,-1.54348 -0.064,-0.90037 -0.2572,-1.47917 -0.2572,-2.12229 0,-0.64311 -0.473,-1.86861 -0.2573,-2.44384 0.2157,-0.57522 0.2142,-0.80003 0.9004,-0.83605 0.6861,-0.036 1.9936,1.54348 2.3152,1.73641 0.3216,0.19294 1.1576,0.57881 1.4792,1.02899 0.3216,0.45018 0.9003,0.70743 0.9003,1.41486 0,0.70742 0,2.2509 0.1287,3.08695 0.1286,0.83605 0.5788,2.7654 0.5788,3.15127 0,0.38587 0.064,1.15761 -0.3859,1.02899 -0.4502,-0.12863 -1.6078,-1.02899 -1.9294,-1.41486 -0.3215,-0.38587 -0.3215,-0.32155 -0.6431,-0.90036 -0.3216,-0.5788 -0.5788,-0.83605 -0.836,-1.15761 -0.2573,-0.32156 -0.9325,-0.90036 -1.029,-1.02898 z"
           style="fill:#fff1d0;fill-opacity:1;fill-rule:evenodd;stroke:#000000;stroke-width:0.50932205px;stroke-linecap:butt;stroke-linejoin:miter;stroke-opacity:1" />
        <path
           sodipodi:nodetypes="zzzzzzzzzzzzzzzzzzzz"
           inkscape:connector-curvature="0"
           id="path10486"
           d="m 1314.0313,-125.26426 c -0.3655,-0.5311 -0.836,-2.37953 -1.0933,-2.89403 -0.2573,-0.51449 -0.5145,-0.96467 -0.7718,-1.99366 -0.2572,-1.02898 -0.3215,-1.28623 -0.4501,-2.57246 -0.1287,-1.28624 -0.064,-1.73642 -0.1287,-2.70109 -0.064,-0.96467 -0.064,-1.86504 0,-2.70109 0.064,-0.83605 -0.1286,-1.35054 0,-1.60779 0.1287,-0.25725 0.4889,-0.56672 0.9647,-0.51449 0.4758,0.0522 1.029,0.90036 1.3506,1.15761 0.3215,0.25725 0.6431,0.12862 1.2862,1.15761 0.6431,1.02899 0.9003,1.47916 1.029,1.86503 0.1286,0.38587 0.4501,0.70743 0.5144,1.28623 0.064,0.57881 0.193,1.28624 0.2573,1.80073 0.064,0.51449 0.1287,3.44068 0.1287,3.60145 0,0.16078 0,0.83605 0,1.15761 0,0.32156 0.064,1.15761 -0.064,2.12229 -0.1286,0.96467 -0.2542,1.50524 -0.5145,1.80072 -0.2602,0.29548 0.3216,0.5788 -0.4502,0.19294 -0.7718,-0.38587 -1.1575,-0.38587 -1.4791,-0.64312 -0.3216,-0.25725 -0.2134,0.0166 -0.5788,-0.51449 z"
           style="fill:#fff1d0;fill-opacity:1;fill-rule:evenodd;stroke:#000000;stroke-width:0.50932205px;stroke-linecap:butt;stroke-linejoin:miter;stroke-opacity:1" />
        <path
           sodipodi:nodetypes="zzzzzzzzzzzzzzzz"
           inkscape:connector-curvature="0"
           id="path10488"
           d="m 1318.0829,-125.84307 c -0.2161,-0.47905 10e-5,-1.02898 -0.1286,-2.05797 -0.1286,-1.02899 -0.064,-1.60779 -0.064,-2.89402 0,-1.28624 -0.3859,-0.57881 0.064,-1.92935 0.4502,-1.35055 0.5145,-2.25091 0.5788,-2.50816 0.064,-0.25724 0.1026,-0.46653 0.5145,-0.38586 0.4118,0.0807 0.6431,1.1576 0.9647,1.60778 0.3216,0.45019 0.2571,0.38587 0.4501,0.64312 0.193,0.25725 0.2573,1.54347 0.3216,2.05797 0.064,0.5145 0.064,1.22193 0.1286,1.92935 0.064,0.70743 10e-5,1.15761 -0.064,1.73642 -0.064,0.5788 -0.1055,1.01779 -0.1929,1.47916 -0.088,0.46137 -0.083,1.05832 -0.3216,1.28624 -0.239,0.22791 -0.1286,0.32156 -0.6431,0.12862 -0.5145,-0.19294 -0.5584,-0.14109 -0.8361,-0.32156 -0.2776,-0.18047 -0.5555,-0.29269 -0.7717,-0.77174 z"
           style="fill:#fff1d0;fill-opacity:1;fill-rule:evenodd;stroke:#000000;stroke-width:0.50932205px;stroke-linecap:butt;stroke-linejoin:miter;stroke-opacity:1" />
        <path
           sodipodi:nodetypes="zzzzzzzzzzzzzz"
           inkscape:connector-curvature="0"
           id="path10490"
           d="m 1321.6844,-120.18365 c 0,-0.16078 -0.3859,-0.77173 -0.4502,-1.73641 -0.064,-0.96468 0.1286,-1.47917 0.836,-2.95833 0.7075,-1.47917 0.6431,-1.22192 0.9647,-1.92935 0.3216,-0.70743 1.351,-2.70076 1.9936,-3.27989 0.6427,-0.57914 0.7126,-0.85967 1.222,-0.57881 0.5094,0.28085 0.1929,1.54347 0.2572,2.12228 0.064,0.57881 0,1.54348 -0.1929,2.31522 -0.1929,0.77174 -0.5788,1.47916 -0.8361,1.80072 -0.2572,0.32157 -0.5144,0.38587 -0.9646,0.83606 -0.4502,0.45018 -1.2219,0.90036 -1.4149,1.41485 -0.1929,0.51449 -0.3858,0.64312 -0.4502,1.0933 -0.064,0.45019 0.077,0.64521 -0.1286,0.83605 -0.2058,0.19084 -0.836,0.22509 -0.836,0.0643 z"
           style="fill:#fff1d0;fill-opacity:1;fill-rule:evenodd;stroke:#000000;stroke-width:0.50932205px;stroke-linecap:butt;stroke-linejoin:miter;stroke-opacity:1" />
        <path
           sodipodi:nodetypes="zzzzzzzzzzzzzzzz"
           inkscape:connector-curvature="0"
           id="path10492"
           d="m 1327.5367,-121.72713 c 0.064,-0.16078 0.3216,-0.5788 0.064,-1.60778 -0.2572,-1.02899 -0.5788,-0.83606 -0.2572,-2.25091 0.3216,-1.41486 0.6431,-2.37953 0.6431,-3.15127 0,-0.77174 -0.5145,-0.96468 -0.2573,-1.54348 0.2573,-0.5788 0.7075,-0.64312 1.5435,-0.77174 0.8361,-0.12862 2.8513,-0.60676 3.6015,-0.0643 0.7502,0.54244 0.4502,1.35054 0.5788,1.86503 0.1286,0.5145 0.3859,1.02899 0.1286,1.92936 -0.2573,0.90036 -1.2219,2.7654 -1.3505,3.3442 -0.1287,0.5788 0.1929,1.47916 0.2572,1.80072 0.064,0.32156 0.064,0.64312 -0.064,1.02899 -0.1286,0.38587 -0.2573,0.64312 -1.1576,0.45018 -0.9004,-0.19294 -1.5435,-0.32155 -2.2509,-0.51449 -0.7075,-0.19294 -1.9553,-0.1987 -1.8651,-0.5788 0.09,-0.38011 0.3216,0.22508 0.3859,0.0643 z"
           style="fill:#fff1d0;fill-opacity:1;fill-rule:evenodd;stroke:#000000;stroke-width:0.50932205px;stroke-linecap:butt;stroke-linejoin:miter;stroke-opacity:1" />
        <path
           sodipodi:nodetypes="zzzzzzzzzzzzzzzzzz"
           inkscape:connector-curvature="0"
           id="path10494"
           d="m 1327.601,-106.99976 c -0.1286,-0.12862 -1.0289,-0.64312 -1.1576,-1.41486 -0.1286,-0.77174 -0.4502,-0.96467 -0.2572,-1.99366 0.1929,-1.02898 0.9004,-1.54348 0.836,-2.63677 -0.064,-1.0933 -0.5145,-2.25091 -0.3216,-3.02265 0.193,-0.77174 0.7718,-1.28623 0.8361,-1.80072 0.064,-0.51449 -0.064,-1.35055 0.2573,-1.35055 0.3215,0 0.9743,-0.0616 1.5435,0.12862 0.5691,0.19022 1.3504,0.64312 1.7363,1.0933 0.3859,0.45018 0.9647,0.77174 1.3506,1.41486 0.3859,0.64312 0.7717,1.41485 0.7717,1.92935 0,0.51449 0,1.41485 -0.1929,2.12228 -0.1929,0.70743 0.1287,1.0933 -0.3215,1.99366 -0.4502,0.90036 -0.7718,1.47917 -0.9004,2.05797 -0.1286,0.57881 -0.5788,1.86504 -0.8361,1.99366 -0.2572,0.12863 -0.1929,0.25725 -0.7717,0.25725 -0.5788,0 -1.6402,-0.12645 -2.058,-0.32155 -0.4178,-0.19511 -0.3859,-0.32157 -0.5145,-0.45019 z"
           style="fill:#fff1d0;fill-opacity:1;fill-rule:evenodd;stroke:#000000;stroke-width:0.50932205px;stroke-linecap:butt;stroke-linejoin:miter;stroke-opacity:1" />
        <path
           sodipodi:nodetypes="zzzzzzzzzzzzzzzzz"
           inkscape:connector-curvature="0"
           id="path10496"
           d="m 1330.3021,-104.23436 c -0.093,-0.60857 0.3859,-1.28623 0.7075,-2.05797 0.3215,-0.77174 1.0932,-2.37953 1.2862,-2.82971 0.193,-0.45019 0.9003,-1.73641 1.029,-1.99366 0.1286,-0.25725 0.6431,-0.96467 0.836,-1.35055 0.193,-0.38587 0.6109,-0.3981 1.1576,-0.19293 0.5468,0.20517 1.052,1.20833 1.4792,1.80073 0.4272,0.59239 0.9004,1.41485 1.0933,1.73641 0.1929,0.32156 0.1929,2.37952 0.1929,2.63677 0,0.25725 -0.584,1.86288 -0.7717,2.63678 -0.1878,0.77391 -0.2907,1.47892 -0.3859,1.99366 -0.095,0.51474 0.088,0.85725 -0.1929,1.0933 -0.2814,0.23604 -0.7074,0.0643 -1.0933,0 -0.386,-0.0643 -1.4148,-0.19293 -1.9294,-0.51449 -0.5145,-0.32156 -0.3858,-0.32156 -1.0289,-0.70743 -0.6432,-0.38587 -0.9004,-0.38587 -1.4792,-1.02899 -0.5788,-0.64312 -0.8072,-0.61335 -0.9004,-1.22192 z"
           style="fill:#fff1d0;fill-opacity:1;fill-rule:evenodd;stroke:#000000;stroke-width:0.50932205px;stroke-linecap:butt;stroke-linejoin:miter;stroke-opacity:1" />
        <path
           sodipodi:nodetypes="zzzzzzzzzzzzzzzzzzzz"
           inkscape:connector-curvature="0"
           id="path10498"
           d="m 1337.698,-99.282364 c 0.2033,-0.308395 -0.9647,-1.093296 -0.7718,-1.800726 0.1929,-0.70743 0.7718,-0.83605 0.9004,-1.28623 0.1286,-0.45019 0.3215,-0.70743 0.5144,-1.22192 0.193,-0.5145 0.193,-0.96468 0.193,-1.41486 0,-0.45018 0,-1.41486 0.2572,-1.41486 0.2573,0 1.0933,-0.38586 1.3506,-0.38586 0.2573,0 1.6416,0.77715 2.1223,1.22192 0.4807,0.44477 0.5788,0.90036 0.8361,1.22192 0.2572,0.32156 0.826,0.31042 1.0289,0.96467 0.2029,0.65426 -0.1929,2.25091 -0.5788,2.63678 -0.3859,0.38587 -0.6431,0.51449 -0.8361,0.964674 -0.1929,0.450185 -0.836,1.672099 -0.9646,1.929348 -0.1286,0.257248 -0.9647,1.286231 -1.2219,1.414856 -0.2573,0.128624 -0.1286,0.578808 -0.5145,0.128624 -0.386,-0.450185 -0.5145,-0.450185 -0.9647,-1.093301 -0.4502,-0.643116 -0.7075,-0.900359 -0.8361,-1.286231 -0.1286,-0.385873 -0.2816,-1.11236 -0.5788,-1.093296 -0.2971,0.01905 -0.2695,0.403979 -0.1929,0.514492 0.077,0.110512 0.054,0.308394 0.2573,0 z"
           style="fill:#fff1d0;fill-opacity:1;fill-rule:evenodd;stroke:#000000;stroke-width:0.50932205px;stroke-linecap:butt;stroke-linejoin:miter;stroke-opacity:1" />
        <path
           sodipodi:nodetypes="zzzzzzzzzzzzzzzzzz"
           inkscape:connector-curvature="0"
           id="path10500"
           d="m 1343.3574,-95.102107 c -0.3129,-0.301335 -0.7074,-1.221921 -0.5788,-1.993661 0.1286,-0.77174 0.5145,-1.736417 0.9003,-2.186596 0.3859,-0.45018 0.9004,-0.385868 1.1576,-1.221916 0.2573,-0.83606 0.064,-1.22192 0.6432,-1.22192 0.5787,0 1.1575,0.12862 1.6077,0.32155 0.4502,0.19294 0.8361,0.19293 2.1223,0.45018 1.2863,0.25725 1.9937,0.45019 2.3796,0.45019 0.3858,0 1.2862,0.32155 1.3505,1.157604 0.064,0.836052 0,1.607792 0,2.186596 0,0.578803 -0.1929,1.414856 -0.1929,2.186598 0,0.77174 0.064,1.479163 -0.3216,1.672099 -0.3858,0.192936 -2.4439,0.192936 -2.8297,0 -0.3859,-0.192936 -2.1866,-1.093296 -2.5724,-1.22192 -0.3859,-0.128624 -0.6955,0.07245 -1.0934,0.06431 -0.3978,-0.0081 -0.836,0.06431 -1.2862,-0.128624 -0.4502,-0.192936 -0.5539,-0.305308 -0.7717,-0.385867 -0.2178,-0.08056 -0.2017,0.172711 -0.5145,-0.128625 z"
           style="fill:#fff1d0;fill-opacity:1;fill-rule:evenodd;stroke:#000000;stroke-width:0.50932205px;stroke-linecap:butt;stroke-linejoin:miter;stroke-opacity:1" />
        <path
           sodipodi:nodetypes="zzzzzzzzzzzzzzzzzzz"
           inkscape:connector-curvature="0"
           id="path10502"
           d="m 1354.9978,-94.266054 c 0,-0.192932 -0.064,-0.707428 -0.5145,-1.350546 -0.4502,-0.643116 -0.5787,-0.643116 -0.7717,-1.54348 -0.193,-0.900365 -0.3859,-1.286232 0.064,-1.672105 0.4502,-0.385872 0.5146,-0.578798 1.0934,-0.964671 0.5788,-0.385874 1.6077,-0.836054 1.9936,-1.157614 0.3859,-0.32156 0.5788,-0.51449 1.1576,-0.64311 0.5788,-0.12863 1.0875,-0.46977 1.5435,-0.57881 0.456,-0.10904 0.9004,-0.12862 1.1576,-0.12862 0.2573,0 0.8361,0.19293 1.029,0.64311 0.1929,0.45019 0.5788,1.28624 0.9004,1.993668 0.3216,0.707428 0.5788,1.254073 0.5788,1.479163 0,0.22509 0.082,0.937642 0,1.286237 -0.082,0.348595 0.193,0.385862 -0.3859,0.771735 -0.5788,0.385873 -3.1907,0.701247 -3.8587,1.093302 -0.668,0.392056 -0.1286,0.385868 -0.4502,0.45018 -0.3216,0.06431 -0.9647,0.321555 -1.3505,0.578804 -0.3859,0.257248 -1.1577,0.514497 -1.5435,0.578809 -0.3859,0.06431 -0.6431,-0.643121 -0.6431,-0.836052 z"
           style="fill:#fff1d0;fill-opacity:1;fill-rule:evenodd;stroke:#000000;stroke-width:0.50932205px;stroke-linecap:butt;stroke-linejoin:miter;stroke-opacity:1" />
        <path
           sodipodi:nodetypes="zzzzzzzzzzzzzzzzzzz"
           inkscape:connector-curvature="0"
           id="path10504"
           d="m 1365.4806,-98.060445 c -0.2698,-0.247551 -0.5788,-0.192936 -1.2219,-0.707428 -0.6432,-0.514491 -0.9647,-0.32155 -1.029,-0.900359 -0.064,-0.578808 0.3215,-1.672098 0.3215,-2.122288 0,-0.45018 0,-1.1576 0.1287,-1.41485 0.1286,-0.25725 -0.4502,0.19293 0.5144,-0.64312 0.9647,-0.83605 1.4149,-1.28623 1.7365,-1.6721 0.3216,-0.38587 0.9003,-0.70742 1.2219,-1.0933 0.3216,-0.38587 -0.064,-0.70743 0.9004,-0.57881 0.9647,0.12863 1.636,0.0302 2.1865,0.38588 0.5506,0.35565 0.7074,0.83605 0.9647,1.41485 0.2572,0.57881 0.5145,1.0933 0.7718,1.54348 0.2572,0.45019 0.3858,0.12862 0.4502,0.96467 0.064,0.83606 0.1286,1.47917 -0.193,1.92935 -0.3216,0.45019 -0.7074,0.964678 -1.2219,1.286238 -0.5146,0.321561 0,0 -1.0933,0.707428 -1.0933,0.707428 -3.087,1.99366 -3.3442,2.057972 -0.2573,0.06431 -0.5788,-0.257248 -0.6431,-0.514497 -0.064,-0.257248 -0.1804,-0.395565 -0.4502,-0.643116 z"
           style="fill:#fff1d0;fill-opacity:1;fill-rule:evenodd;stroke:#000000;stroke-width:0.50932205px;stroke-linecap:butt;stroke-linejoin:miter;stroke-opacity:1" />
        <path
           sodipodi:nodetypes="zzzzzzzzzzzzzzzzzzzzzz"
           inkscape:connector-curvature="0"
           id="path10506"
           d="m 1371.9761,-106.16371 c -0.1907,-0.38467 -0.3216,-0.32156 -0.5789,-0.90036 -0.2572,-0.57881 -0.3216,-0.77174 -0.1929,-1.47917 0.1286,-0.70743 0.6431,-1.73641 0.9647,-2.50815 0.3216,-0.77174 0.5145,-1.41486 0.4502,-1.92935 -0.064,-0.51449 0.056,-1.14642 0.2572,-1.41485 0.2013,-0.26844 -0.064,-0.38588 0.5145,-0.25725 0.5788,0.12862 0.9647,0.32155 1.1576,0.5788 0.1929,0.25725 1.4792,0.83605 1.865,0.90037 0.3859,0.0643 1.0933,0.19293 1.4149,0.38587 0.3216,0.19293 1.4811,0.75976 1.8651,1.02898 0.3839,0.26922 0.1928,-0.45018 0.5144,0.45018 0.3216,0.90036 0.7075,1.02899 0.5145,1.99367 -0.1929,0.96467 -0.2572,1.54347 -0.5145,1.99365 -0.2572,0.45019 -0.7717,1.0933 -1.029,1.54348 -0.2572,0.45018 -0.064,0.38587 -0.7717,0.96468 -0.7074,0.5788 -0.9646,0.77173 -1.6721,1.1576 -0.7074,0.38588 -0.7074,0.25725 -1.4792,0.77174 -0.7717,0.5145 -0.7717,0.77174 -1.0289,0.5145 -0.2573,-0.25725 -0.4502,-0.5145 -0.9004,-1.15761 -0.4502,-0.64312 -0.5788,-0.64312 -0.8361,-1.22192 -0.2572,-0.57881 -0.3238,-1.03018 -0.5144,-1.41486 z"
           style="fill:#fff1d0;fill-opacity:1;fill-rule:evenodd;stroke:#000000;stroke-width:0.50932205px;stroke-linecap:butt;stroke-linejoin:miter;stroke-opacity:1" />
        <path
           sodipodi:nodetypes="zzzzzzzzzzzzzzzzzz"
           inkscape:connector-curvature="0"
           id="path10508"
           d="m 1377.0567,-115.03871 c -0.097,-0.16078 -1.0933,-0.77174 -1.2863,-1.15761 -0.193,-0.38588 -0.7717,0.38587 -0.9003,-1.0933 -0.1287,-1.47917 -0.064,-2.37953 0.1929,-2.89403 0.2573,-0.51449 0.5144,-0.96467 0.7074,-1.47917 0.193,-0.51449 0.5485,-1.11889 0.7718,-1.47916 0.2233,-0.36027 -0.1287,-0.5788 0.5145,-0.70743 0.6431,-0.12862 1.3505,-0.45018 1.8007,-0.45018 0.4502,0 1.321,0.0155 1.9293,0.25725 0.6084,0.24176 1.029,0.5788 1.6079,1.1576 0.5788,0.57881 1.2218,1.41486 1.4791,1.99366 0.2572,0.57881 0.5144,0.70743 0.6431,1.99366 0.1286,1.28625 0.2573,1.47918 -0.064,2.25092 -0.3216,0.77174 -0.2572,0.77173 -0.6431,1.22192 -0.3859,0.45018 -0.2573,0.38586 -0.7075,0.70742 -0.4501,0.32157 0,0.57881 -1.4791,0.57881 -1.4792,0 -1.3505,0.12863 -2.1223,0 -0.7718,-0.12862 -2.3474,-0.73958 -2.4438,-0.90036 z"
           style="fill:#fff1d0;fill-opacity:1;fill-rule:evenodd;stroke:#000000;stroke-width:0.50932205px;stroke-linecap:butt;stroke-linejoin:miter;stroke-opacity:1" />
        <path
           sodipodi:nodetypes="zzzzzzzzzzzzzzzzzzz"
           inkscape:connector-curvature="0"
           id="path10510"
           d="m 1375.063,-127.96535 c -0.064,-0.22509 -1.1576,-1.99366 -1.2219,-2.57247 -0.064,-0.5788 0.1286,-1.99366 0.2572,-2.57246 0.1287,-0.57881 0.5145,-1.47916 0.7718,-1.92935 0.2572,-0.45018 0.3858,-0.83605 0.9003,-1.0933 0.5145,-0.25725 1.1865,-0.59593 1.6078,-0.77174 0.4214,-0.17581 0.3495,-0.467 0.9004,-0.32156 0.5509,0.14545 1.4149,1.41486 1.6078,1.86504 0.1929,0.45018 0.3858,1.41485 0.5145,1.92935 0.1286,0.51449 0.1929,1.22192 0.3858,1.80073 0.193,0.5788 0.6431,1.6721 0.8361,2.2509 0.1929,0.57881 0.1929,1.80072 0.2572,2.25091 0.064,0.45018 0.1286,1.02898 0.193,1.41485 0.064,0.38588 1.1576,0.45019 -0.193,0.45019 -1.3505,0 -2.3152,-0.0643 -3.0869,-0.25725 -0.7717,-0.19294 -1.2219,-0.12862 -1.9294,-0.25725 -0.7074,-0.12862 -1.029,-0.0643 -1.2862,-0.32155 -0.2573,-0.25725 -0.747,-1.26372 -0.7074,-1.6078 0.04,-0.34407 0.2572,-0.0321 0.1929,-0.25724 z"
           style="fill:#fff1d0;fill-opacity:1;fill-rule:evenodd;stroke:#000000;stroke-width:0.50932205px;stroke-linecap:butt;stroke-linejoin:miter;stroke-opacity:1" />
        <path
           sodipodi:nodetypes="zzzzzzzzzzzzzzzzzzzz"
           inkscape:connector-curvature="0"
           id="path10512"
           d="m 1383.8094,-126.67912 c 0.026,-0.37436 -0.2573,-0.64311 -0.4502,-1.22192 -0.1929,-0.57881 -0.1929,-0.57881 -0.3216,-1.92935 -0.1286,-1.35054 0.193,-0.96467 -0.1286,-1.54348 -0.3216,-0.57881 -0.6431,-1.15761 -0.7074,-1.86504 -0.064,-0.70742 0,-0.57879 -0.1286,-0.96467 -0.1287,-0.38587 0.4438,-1.10399 0.7074,-1.28623 0.2636,-0.18224 0,-0.19294 0.4502,-0.0643 0.4502,0.12862 0.8563,0.22544 1.2862,0.38587 0.4299,0.16043 0.9004,0.38586 1.2862,0.5788 0.3859,0.19294 0.3859,0.0643 0.8361,0.64312 0.4502,0.5788 0.3215,0.32156 0.6431,1.02898 0.3216,0.70743 0.4502,0.90036 0.5145,1.60779 0.064,0.70743 0.193,2.50816 0.193,2.95834 0,0.45018 0.064,0.70742 0.064,1.22192 0,0.51449 0.1287,0.83604 -0.3858,1.28623 -0.5145,0.45018 -0.3859,1.02899 -0.9647,0.90036 -0.5788,-0.12862 -1.7364,-0.45018 -2.1223,-0.45018 -0.3858,0 -1.1576,-0.12862 -1.2219,-0.45018 -0.064,-0.32156 0.4238,-0.46169 0.4502,-0.83605 z"
           style="fill:#fff1d0;fill-opacity:1;fill-rule:evenodd;stroke:#000000;stroke-width:0.50932205px;stroke-linecap:butt;stroke-linejoin:miter;stroke-opacity:1" />
        <path
           sodipodi:nodetypes="zzzzzzzzzzzzzzzzzzz"
           inkscape:connector-curvature="0"
           id="path10514"
           d="m 1373.5195,-134.84669 c 0.1442,-0.33495 -0.1929,-0.5145 0.7718,-1.67211 0.9647,-1.1576 1.5434,-1.35054 1.9293,-1.6721 0.3859,-0.32156 0.5788,-0.83605 1.1576,-1.22192 0.5789,-0.38587 1.029,-0.19294 0.7074,-0.77174 -0.3215,-0.57881 -0.4501,-1.60779 -0.7074,-1.99366 -0.2572,-0.38587 0.064,0.0643 -0.7074,-1.02898 -0.7717,-1.0933 -0.5788,-0.90036 -1.2863,-1.41486 -0.7074,-0.5145 -0.9646,-0.77174 -1.2219,-0.83605 -0.2572,-0.0643 -0.1359,-0.36589 -0.7074,-0.0643 -0.5715,0.30157 -1.1576,2.2509 -1.5435,2.7654 -0.3858,0.51449 -0.1929,0.19293 -0.6431,0.83605 -0.4502,0.64311 -0.4502,-0.45019 -0.7074,1.09329 -0.2573,1.54348 -0.5145,1.47917 -0.3216,1.99366 0.193,0.5145 0.4502,0.32156 0.8361,0.96468 0.3858,0.64311 0.6431,0.96467 1.029,1.80072 0.3858,0.83605 0.5145,0.90036 0.7074,1.35055 0.1929,0.45018 0.4342,0.26 0.5788,0.19293 0.1446,-0.0671 -0.016,0.0134 0.1286,-0.32155 z"
           style="fill:#fff1d0;fill-opacity:1;fill-rule:evenodd;stroke:#000000;stroke-width:0.50932205px;stroke-linecap:butt;stroke-linejoin:miter;stroke-opacity:1" />
        <path
           sodipodi:nodetypes="zzzzzzzzzzzzzzzzzzzz"
           inkscape:connector-curvature="0"
           id="path10516"
           d="m 1367.0884,-140.89199 c -0.193,-0.0643 -0.1286,0.12862 -1.3506,-0.51449 -1.2219,-0.64312 -0.7717,0.83606 -2.0579,-1.0933 -1.2863,-1.92935 -1.3506,-1.60779 -1.3506,-2.37953 0,-0.77174 -0.1287,-0.38587 -0.064,-1.60779 0.064,-1.22193 0.064,-1.41486 0.3216,-1.92935 0.2572,-0.51449 0.7461,-1.14884 1.0933,-1.41485 0.3471,-0.26602 0.2572,-0.5145 0.7717,-0.32156 0.5145,0.19294 1.4791,0.77174 1.8007,0.90036 0.3216,0.12862 1.9936,0.90036 2.2509,0.96468 0.2573,0.0643 1.5435,0.51449 1.9294,0.77174 0.3858,0.25724 1.1576,0.25724 1.1576,0.64311 0,0.38587 -0.064,1.02898 -0.064,1.73641 0,0.70743 -0.064,1.22193 -0.5145,1.86504 -0.4502,0.64312 -0.064,0.45018 -0.9647,1.0933 -0.9004,0.64311 -1.1576,0.77174 -1.4148,0.96468 -0.2573,0.19293 -0.8561,0.34648 -1.1577,0.45017 -0.3016,0.1037 -0.4846,0.31093 -0.6431,0.19294 -0.1586,-0.11798 -0.1246,-0.45217 0,-0.51449 0.1246,-0.0623 0.4502,0.25724 0.2573,0.19293 z"
           style="fill:#fff1d0;fill-opacity:1;fill-rule:evenodd;stroke:#000000;stroke-width:0.50932205px;stroke-linecap:butt;stroke-linejoin:miter;stroke-opacity:1" />
        <path
           sodipodi:nodetypes="zzzzzzzzzzzzzzzz"
           inkscape:connector-curvature="0"
           id="path10518"
           d="m 1356.6699,-144.55775 c -1.4791,-0.1296 -4.802,0.43192 -5.3379,-0.45018 -0.5359,-0.88211 0.5788,-0.45018 0.3216,-0.77174 -0.2573,-0.32156 0.1929,-2.44384 0.1286,-2.7654 -0.064,-0.32156 -0.6431,-1.22192 -0.7074,-1.54348 -0.064,-0.32156 0.064,-0.90036 0.3858,-1.28623 0.3216,-0.38588 0.3859,-1.15761 0.9647,-1.15761 0.5788,0 2.5081,-0.32156 2.7654,-0.25725 0.2573,0.0643 0.9647,0.0643 1.9294,0.0643 0.9646,0 2.6367,-0.12862 3.2156,-0.0643 0.5788,0.0643 0.4502,0.32156 0.7717,1.0933 0.3215,0.77174 1.029,3.53713 1.029,3.92301 0,0.38586 -0.3859,1.28622 -0.6432,1.92934 -0.2572,0.64313 -0.265,0.95573 -0.5144,1.22193 -0.2494,0.2662 0.3858,0.25724 -0.7718,0.38587 -1.1576,0.12862 -2.0581,-0.19196 -3.5371,-0.32156 z"
           style="fill:#fff1d0;fill-opacity:1;fill-rule:evenodd;stroke:#000000;stroke-width:0.50932205px;stroke-linecap:butt;stroke-linejoin:miter;stroke-opacity:1" />
        <path
           sodipodi:nodetypes="zzzzzzzzzzzzzzzzzzz"
           inkscape:connector-curvature="0"
           id="path10520"
           d="m 1344.5793,-141.79235 c -0.4341,0.0134 -1.0933,-0.19293 -1.6721,-0.57881 -0.5789,-0.38587 -1.9293,-1.6721 -2.2509,-1.99366 -0.3216,-0.32156 -1.0933,-1.41485 -1.1576,-1.73641 -0.064,-0.32156 -0.1286,-0.0643 -0.1929,-0.64311 -0.064,-0.57881 -0.3859,-0.45019 0,-1.15762 0.3858,-0.70742 0.5787,-1.1576 1.3505,-1.35054 0.7717,-0.19294 0.9004,-0.5788 2.1866,-0.83605 1.2862,-0.25725 2.5724,-0.77174 2.894,-0.83605 0.3216,-0.0643 2.0624,-0.8237 2.8297,-0.64312 0.7673,0.18059 1.0289,0.12862 1.4148,1.15761 0.386,1.02899 0.5146,1.60779 0.5146,2.12229 0,0.51449 0,1.35054 0,1.60779 0,0.25725 -0.064,0.96467 -0.3216,1.41485 -0.2572,0.45019 -0.193,0.5788 -0.9647,0.96468 -0.7717,0.38587 -0.5144,0.32155 -1.0933,0.5788 -0.5788,0.25725 -1.5113,0.77174 -1.8007,0.96468 -0.2894,0.19293 -0.6714,0.48618 -0.9647,0.64311 -0.2932,0.15693 -0.3377,0.3082 -0.7717,0.32156 z"
           style="fill:#fff1d0;fill-opacity:1;fill-rule:evenodd;stroke:#000000;stroke-width:0.50932205px;stroke-linecap:butt;stroke-linejoin:miter;stroke-opacity:1" />
        <path
           sodipodi:nodetypes="zzzzzzzzzzzzzzzzzzzzzzzz"
           inkscape:connector-curvature="0"
           id="path10522"
           d="m 1334.6753,-131.88836 c -0.1608,-0.0321 -2.403,-0.1013 -2.9583,-0.51449 -0.5554,-0.4132 -0.2573,-0.70743 -0.5145,-1.02899 -0.2573,-0.32156 -0.4502,-0.0643 -0.9004,-0.77174 -0.4502,-0.70743 -1.4792,-0.90036 -1.4148,-1.6721 0.064,-0.77174 1.0787,-2.05429 1.4148,-2.7654 0.3361,-0.71112 0.4502,-0.90037 0.6431,-1.47917 0.193,-0.5788 0.7718,-2.57246 1.029,-2.95834 0.2573,-0.38587 1.029,-1.02898 1.3506,-1.1576 0.3216,-0.12863 0.4501,0.0643 1.6078,-0.57881 1.1576,-0.64311 1.0824,-0.54914 1.4148,-0.64311 0.3324,-0.094 0.1929,-0.0643 0.5145,-0.0643 0.3216,0 1.6757,0.7588 2.2509,1.22192 0.5752,0.46311 0.9647,1.28623 1.2219,1.41485 0.2573,0.12863 1.029,0.96467 1.2863,1.28623 0.2572,0.32156 0.6431,0.90037 0.5144,1.22193 -0.1286,0.32156 -0.7074,0.90036 -1.2219,1.35054 -0.5145,0.45019 -0.7717,0.64311 -1.1576,1.02898 -0.3858,0.38588 -1.811,1.18514 -2.3152,1.73642 -0.5042,0.55128 -0.5144,0.90036 -0.836,1.35054 -0.3216,0.45019 -0.9647,1.0933 -1.0933,1.47917 -0.1286,0.38587 -0.193,0.45018 -0.3859,0.83605 -0.1929,0.38587 -0.1938,1.14402 -0.4502,1.0933 -0.2564,-0.0507 0.1608,-0.35371 0,-0.38587 z"
           style="fill:#fff1d0;fill-opacity:1;fill-rule:evenodd;stroke:#000000;stroke-width:0.50932205px;stroke-linecap:butt;stroke-linejoin:miter;stroke-opacity:1" />
        <path
           sodipodi:nodetypes="zzzzzzzzzzzzzzzzzzzzzzzzzz"
           inkscape:connector-curvature="0"
           id="path10524"
           d="m 1335.0612,-128.41553 c 0.6214,-1.95538 2.0105,-3.97963 3.1512,-5.5308 1.1408,-1.55117 3.2156,-3.60145 3.5372,-3.79439 0.3216,-0.19293 3.6657,-2.05797 4.1802,-2.31522 0.5146,-0.25725 3.7756,-2.34126 5.7881,-2.82971 2.0124,-0.48844 4.3634,-0.32024 5.9809,-0.12862 1.6176,0.19161 3.28,0.70742 3.6658,0.96467 0.3859,0.25725 7.846,4.56613 8.039,4.88769 0.1929,0.32156 1.942,2.27372 2.8297,3.85869 0.8877,1.58498 1.9672,3.77149 2.3152,5.65943 0.348,1.88793 -0.1286,4.95199 -0.1286,5.40217 0,0.45018 0.092,3.68103 -0.5145,5.20925 -0.6067,1.52822 -2.6368,3.3442 -2.8297,3.66576 -0.1929,0.32156 -1.2063,2.29886 -1.9937,3.21558 -0.7873,0.91673 -2.3795,2.05797 -2.6368,2.25091 -0.2572,0.19293 -1.8007,1.41485 -3.2155,1.60779 -1.4149,0.19293 -4.116,2.05797 -4.4375,2.18659 -0.3216,0.12863 -3.6015,0.57881 -4.7591,0.70743 -1.1576,0.12863 -5.5308,-0.25725 -6.2382,-0.19293 -0.7075,0.0643 -2.4439,-0.83606 -2.894,-1.22192 -0.4502,-0.38587 -3.4728,-3.02265 -3.6658,-3.34421 -0.193,-0.32156 -1.865,-2.31522 -2.1223,-2.82971 -0.2572,-0.51449 -3.617,-3.58557 -4.1802,-4.95199 -0.5633,-1.36643 -0.1286,-1.47917 -0.193,-2.37953 -0.064,-0.90037 -0.2572,-3.34421 -0.2572,-4.18026 0,-0.83605 -0.043,-3.9613 0.5788,-5.91667 z"
           style="fill:#f18a89;fill-opacity:1;fill-rule:evenodd;stroke:#000000;stroke-width:0.50932205px;stroke-linecap:butt;stroke-linejoin:miter;stroke-opacity:1" />
        <path
           sodipodi:nodetypes="zzzzzzzzzzzzzzzz"
           inkscape:connector-curvature="0"
           id="path10526"
           d="m 1280.139,-124.81408 c -0.028,0.34073 0.6432,1.1576 1.0933,1.22192 0.4502,0.0643 1.2559,0.44926 1.6721,0.32156 0.4163,-0.12771 0.036,-0.86439 0.6432,-0.64312 0.6074,0.22128 0.3216,2.57246 0.2572,2.95833 -0.064,0.38588 -1.029,2.95834 -0.9004,3.34422 0.1287,0.38587 0.5145,3.21558 0.5788,3.73007 0.064,0.51449 0.7557,2.15785 0.4502,2.63677 -0.3054,0.47892 -0.1285,0.64312 -0.7074,0.19294 -0.5788,-0.45018 -1.4791,-2.12228 -1.9293,-2.7654 -0.4502,-0.64312 -0.3216,-1.92934 -0.4502,-2.44384 -0.1286,-0.5145 -0.2572,-1.54348 -0.3216,-2.25091 -0.064,-0.70743 0.064,-1.67211 -0.1929,-2.31522 -0.2573,-0.64312 -0.6879,-2.61623 -0.5145,-3.34421 0.1734,-0.72797 0.8268,-0.72637 0.6431,-0.90036 -0.1837,-0.174 -0.2932,-0.0835 -0.3216,0.25725 z"
           style="fill:#fff1d0;fill-opacity:1;fill-rule:evenodd;stroke:#000000;stroke-width:0.50932205px;stroke-linecap:butt;stroke-linejoin:miter;stroke-opacity:1" />
        <path
           sodipodi:nodetypes="zzzzzzzzzzzzzzzzzzzzzzzzzz"
           inkscape:connector-curvature="0"
           id="path10528"
           d="m 1284.4479,-125.77876 c 0.1362,-1.0074 3.087,-3.02264 3.3443,-3.40851 0.2572,-0.38588 3.6657,-4.05163 4.1159,-4.4375 0.4502,-0.38588 3.8983,-2.42666 5.788,-3.15128 1.8898,-0.72461 3.7559,-1.61124 5.4022,-1.28623 1.6463,0.32502 2.6951,1.54269 3.6657,2.63678 0.9707,1.09409 1.7364,3.3442 2.058,3.73007 0.3216,0.38588 3.4085,4.63044 3.6015,4.88769 0.1929,0.25725 1.6522,3.42775 2.1223,4.75906 0.47,1.33131 0.7074,2.89402 0.836,3.15126 0.1286,0.25726 0.8915,2.22426 0.6431,3.27991 -0.2483,1.05564 -1.3185,1.70407 -1.9293,2.50815 -0.6108,0.80407 -1.133,1.35471 -1.7364,2.31522 -0.6035,0.9605 -1.5435,3.15126 -1.8008,3.47282 -0.2572,0.32157 -1.6011,2.07608 -2.1865,2.89402 -0.5855,0.81794 -0.193,1.67211 -1.3506,1.99367 -1.1576,0.32156 -2.9583,1.54347 -3.6657,1.6721 -0.7075,0.12862 -6.3026,0 -6.9457,0 -0.6431,0 -2.4438,-0.25725 -3.2799,-0.90037 -0.836,-0.64311 -3.3442,-2.57245 -3.7944,-3.02264 -0.4502,-0.45018 -2.1223,-2.31521 -2.2509,-2.7654 -0.1286,-0.45018 -2.1191,-3.01622 -2.5725,-4.63043 -0.4534,-1.61421 -0.1929,-4.3732 -0.1929,-4.75907 0,-0.38587 -0.064,-4.50182 0,-4.82338 0.064,-0.32156 0.8635,-2.23384 0.7718,-2.95833 -0.092,-0.72448 -0.7793,-0.15021 -0.6432,-1.15761 z"
           style="fill:#f18a89;fill-opacity:1;fill-rule:evenodd;stroke:#000000;stroke-width:0.50932205px;stroke-linecap:butt;stroke-linejoin:miter;stroke-opacity:1" />
        <path
           sodipodi:nodetypes="zzzzzzzzzzzzzzzzzzzzzzzz"
           inkscape:connector-curvature="0"
           id="path10530"
           d="m 1244.1888,-119.86209 c 0.064,-0.0321 -2.9903,-0.60133 -3.73,-1.28623 -0.7397,-0.68489 -0.4502,-1.41485 -0.8361,-1.92935 -0.3858,-0.5145 -1.4148,-1.6721 -1.8007,-2.2509 -0.3859,-0.57881 -1.2862,-2.70109 -1.5435,-3.21559 -0.2572,-0.5145 -0.4371,-1.59675 -0.3085,-2.30418 0.1286,-0.70743 2.6524,-4.98454 2.9096,-5.24179 0.2573,-0.25725 1.0004,-2.8082 1.322,-3.32269 0.3215,-0.51449 2.1865,-3.53714 2.4438,-3.79438 0.2573,-0.25725 1.6078,-1.35055 1.865,-1.41486 0.2573,-0.0643 4.2446,-1.86504 4.6305,-1.86504 0.3858,0 4.8233,-0.25724 5.0806,-0.25724 0.2572,0 1.5739,-0.036 1.9293,0.5788 0.3554,0.61478 -0.2572,1.35054 -0.5145,2.1866 -0.2572,0.83605 -0.9003,2.2509 -1.2219,2.7654 -0.3215,0.51449 -1.3965,2.95309 -1.6239,3.95516 -0.2273,1.00208 -0.3537,1.75249 -0.4341,2.58854 -0.08,0.83605 0.1558,2.74076 0.064,3.74615 -0.091,1.0054 -0.4684,3.73312 -0.6432,4.4375 -0.1748,0.70439 -1.0289,2.81364 -1.656,3.64969 -0.627,0.83605 -2.0098,1.8168 -2.4599,2.07405 -0.4502,0.25725 -1.7945,1.11238 -2.3795,1.15761 -0.5851,0.0452 -0.6495,-0.22919 -0.8361,-0.25725 -0.1866,-0.0281 -0.3215,0.0321 -0.2573,0 z"
           style="fill:#f18a89;fill-opacity:1;fill-rule:evenodd;stroke:#000000;stroke-width:0.50932205px;stroke-linecap:butt;stroke-linejoin:miter;stroke-opacity:1" />
        <path
           sodipodi:nodetypes="zzzzzzzzzzzzzzzzzzzzzzzzz"
           inkscape:connector-curvature="0"
           id="path10532"
           d="m 1251.0059,-120.37658 c -0.424,-0.24726 -1.222,-0.64312 -0.9647,-1.15761 0.2573,-0.51449 1.5435,-2.70108 1.9937,-3.08696 0.4502,-0.38587 0.5788,-2.31522 0.7074,-3.15127 0.1286,-0.83605 0.1929,-3.3442 0.2573,-4.4375 0.064,-1.0933 0.9003,-4.69474 1.1575,-5.01631 0.2573,-0.32156 1.0934,-2.89401 1.4792,-3.27989 0.3859,-0.38586 2.1866,-1.60779 2.5082,-1.60779 0.3216,0 1.7637,0.87037 2.3152,1.02899 0.5515,0.15862 0.5788,-0.45019 0.9004,0.12862 0.3215,0.57881 0.9646,1.6721 1.2862,2.37953 0.3216,0.70743 0.1286,5.78805 0.1286,6.23823 0,0.45018 0,4.88768 0.1286,5.14493 0.1287,0.25724 0.6431,1.28623 0.7075,2.05797 0.064,0.77174 0,3.79438 0,4.4375 0,0.64312 -0.193,3.2799 -0.1286,3.92301 0.064,0.64312 -0.2573,2.57247 -0.2573,2.95834 0,0.38587 -0.3859,1.28623 -0.3859,1.86503 0,0.57881 -0.2572,1.67211 -0.3215,1.22193 -0.064,-0.45019 -1.4149,-2.63678 -1.8651,-2.95834 -0.4502,-0.32156 -1.7364,-1.73641 -2.1865,-2.2509 -0.4502,-0.5145 -0.8361,-1.80073 -1.7365,-2.25091 -0.9004,-0.45019 -1.4791,-0.70743 -1.9936,-0.96468 -0.5145,-0.25725 -1.8651,-0.90036 -2.3152,-0.96468 -0.4502,-0.0643 -0.9909,-0.01 -1.4149,-0.25724 z"
           style="fill:#f18a89;fill-opacity:1;fill-rule:evenodd;stroke:#000000;stroke-width:0.50932205px;stroke-linecap:butt;stroke-linejoin:miter;stroke-opacity:1" />
        <path
           sodipodi:nodetypes="zzzzzzzzzzz"
           inkscape:connector-curvature="0"
           id="path10534"
           d="m 1205.7385,-117.83659 c -0.6374,-0.28323 -1.124,-0.85708 -1.4552,-1.36426 -0.3312,-0.50717 -0.4547,-1.18235 -0.5457,-1.54616 -0.091,-0.3638 -0.012,-1.10616 0.2729,-1.36425 0.2846,-0.25809 0.5051,-0.13218 0.9095,-0.0909 0.4043,0.0412 0.9964,0.24039 1.4552,0.45475 0.4587,0.21436 0.7903,0.41779 1.2733,0.81855 0.4829,0.40077 1.4736,1.07655 1.5461,1.63711 0.073,0.56056 -0.3261,0.72652 -0.5457,1.00046 -0.2195,0.27394 -0.2277,0.4722 -0.7276,0.63665 -0.4998,0.16445 -1.5453,0.10133 -2.1828,-0.1819 z"
           style="fill:#2b0000;fill-rule:evenodd;stroke:#000000;stroke-width:0.50932205px;stroke-linecap:butt;stroke-linejoin:miter;stroke-opacity:1" />
        <path
           sodipodi:nodetypes="zzzzzzzzzzz"
           inkscape:connector-curvature="0"
           id="path10536"
           d="m 1206.0114,-128.84159 c -0.3044,-0.11952 -0.7276,-0.0909 -0.8186,-0.27285 -0.091,-0.1819 -0.5148,-0.82441 -0.6366,-1.27331 -0.1219,-0.44889 -0.254,-0.93019 -0.091,-1.36425 0.1631,-0.43406 0.5075,-0.78167 1.0004,-1.00046 0.4931,-0.21878 1.3561,-0.1881 1.8191,-0.0909 0.4629,0.0971 0.5472,-0.009 0.9095,0.45476 0.3623,0.46404 0.7152,1.77775 0.5457,2.45566 -0.1695,0.6779 -0.7731,1.03949 -1.0914,1.2733 -0.3183,0.23381 -0.3381,0.2761 -0.6367,0.27285 -0.2986,-0.003 -0.6961,-0.33524 -1.0004,-0.45475 z"
           style="fill:#2b0000;fill-rule:evenodd;stroke:#000000;stroke-width:0.50932205px;stroke-linecap:butt;stroke-linejoin:miter;stroke-opacity:1" />
      </g>
      <text
         inkscape:export-ydpi="72"
         inkscape:export-xdpi="72"
         sodipodi:linespacing="125%"
         id="text10538"
         y="-827.8222"
         x="1413.9998"
         style="font-style:normal;font-weight:normal;font-size:16.83090591px;line-height:125%;font-family:sans-serif;text-align:center;letter-spacing:0px;word-spacing:0px;text-anchor:middle;fill:#000000;fill-opacity:1;stroke:none;stroke-width:1px;stroke-linecap:butt;stroke-linejoin:miter;stroke-opacity:1"
         xml:space="preserve"><tspan
           style="font-size:126.23179626px"
           y="-827.8222"
           x="1413.9998"
           id="tspan10540"
           sodipodi:role="line">#</tspan></text>
    </g>
  </g>
</svg>
